<svg width="743" height="431" viewBox="0 0 743 431" fill="none" xmlns="http://www.w3.org/2000/svg">
<g clip-path="url(#clip0_545_2)">
<rect width="743" height="431" fill="white"/>
<circle cx="365" cy="216" r="254" fill="#F4F4F5"/>
<circle cx="96.096" cy="329.096" r="4.09596" fill="#4C7C2C"/>
<circle cx="116.576" cy="329.096" r="4.09596" fill="#4C7C2C"/>
<circle cx="137.056" cy="329.096" r="4.09596" fill="#4C7C2C"/>
<circle cx="157.535" cy="329.096" r="4.09596" fill="#4C7C2C"/>
<circle cx="178.015" cy="329.096" r="4.09596" fill="#4C7C2C"/>
<circle cx="96.096" cy="349.575" r="4.09596" fill="#4C7C2C"/>
<circle cx="116.576" cy="349.575" r="4.09596" fill="#4C7C2C"/>
<circle cx="137.056" cy="349.575" r="4.09596" fill="#4C7C2C"/>
<circle cx="157.535" cy="349.575" r="4.09596" fill="#4C7C2C"/>
<circle cx="178.015" cy="349.575" r="4.09596" fill="#4C7C2C"/>
<circle cx="96.096" cy="370.055" r="4.09596" fill="#4C7C2C"/>
<circle cx="116.576" cy="370.055" r="4.09596" fill="#4C7C2C"/>
<circle cx="137.056" cy="370.055" r="4.09596" fill="#4C7C2C"/>
<circle cx="157.535" cy="370.055" r="4.09596" fill="#4C7C2C"/>
<circle cx="178.015" cy="370.055" r="4.09596" fill="#4C7C2C"/>
<circle cx="96.096" cy="390.535" r="4.09596" fill="#4C7C2C"/>
<circle cx="116.576" cy="390.535" r="4.09596" fill="#4C7C2C"/>
<circle cx="137.056" cy="390.535" r="4.09596" fill="#4C7C2C"/>
<circle cx="157.535" cy="390.535" r="4.09596" fill="#4C7C2C"/>
<circle cx="178.015" cy="390.535" r="4.09596" fill="#4C7C2C"/>
<circle cx="96.096" cy="411.015" r="4.09596" fill="#4C7C2C"/>
<circle cx="198.495" cy="411.015" r="4.09596" transform="rotate(-90 198.495 411.015)" fill="#4C7C2C"/>
<circle cx="116.576" cy="411.015" r="4.09596" fill="#4C7C2C"/>
<circle cx="198.495" cy="390.535" r="4.09596" transform="rotate(-90 198.495 390.535)" fill="#4C7C2C"/>
<circle cx="137.056" cy="411.015" r="4.09596" fill="#4C7C2C"/>
<circle cx="198.495" cy="370.055" r="4.09596" transform="rotate(-90 198.495 370.055)" fill="#4C7C2C"/>
<circle cx="157.535" cy="411.015" r="4.09596" fill="#4C7C2C"/>
<circle cx="198.495" cy="349.576" r="4.09596" transform="rotate(-90 198.495 349.576)" fill="#4C7C2C"/>
<circle cx="178.015" cy="411.015" r="4.09596" fill="#4C7C2C"/>
<circle cx="198.495" cy="329.096" r="4.09596" transform="rotate(-90 198.495 329.096)" fill="#4C7C2C"/>
<path d="M435.5 244.565C435.5 244.996 435.3 245.567 434.602 246.286C433.899 247.011 432.787 247.783 431.222 248.564C428.098 250.123 423.481 251.57 417.652 252.8C406.019 255.256 389.877 256.787 372 256.787C354.123 256.787 337.981 255.256 326.348 252.8C320.519 251.57 315.902 250.123 312.778 248.564C311.214 247.783 310.101 247.011 309.398 246.286C308.7 245.567 308.5 244.996 308.5 244.565L308.5 206.751L308.5 170.425C313.815 168.509 323.068 167.235 334.165 166.448C345.862 165.619 359.383 165.342 372 165.342C384.617 165.342 398.138 165.619 409.835 166.448C420.932 167.235 430.185 168.509 435.5 170.425V170.444V170.502V170.562V170.623V170.686V170.75V170.815V170.882V170.95V171.019V171.089V171.161V171.234V171.309V171.384V171.461V171.539V171.619V171.7V171.782V171.865V171.949V172.035V172.122V172.21V172.299V172.39V172.482V172.575V172.669V172.764V172.861V172.959V173.057V173.158V173.259V173.361V173.465V173.569V173.675V173.782V173.89V173.999V174.109V174.22V174.333V174.446V174.561V174.677V174.793V174.911V175.03V175.15V175.271V175.393V175.516V175.64V175.765V175.891V176.019V176.147V176.276V176.406V176.537V176.669V176.802V176.936V177.071V177.207V177.344V177.482V177.621V177.761V177.901V178.043V178.186V178.329V178.473V178.618V178.765V178.912V179.059V179.208V179.358V179.508V179.66V179.812V179.965V180.119V180.274V180.429V180.585V180.743V180.901V181.059V181.219V181.379V181.541V181.702V181.865V182.029V182.193V182.358V182.524V182.69V182.857V183.025V183.194V183.363V183.533V183.704V183.876V184.048V184.221V184.394V184.569V184.744V184.919V185.096V185.272V185.45V185.628V185.807V185.986V186.167V186.347V186.529V186.71V186.893V187.076V187.26V187.444V187.629V187.814V188V188.187V188.374V188.562V188.75V188.938V189.128V189.317V189.508V189.698V189.89V190.082V190.274V190.467V190.66V190.853V191.048V191.242V191.437V191.633V191.829V192.025V192.222V192.419V192.617V192.815V193.014V193.213V193.412V193.612V193.812V194.012V194.213V194.414V194.616V194.818V195.02V195.223V195.426V195.629V195.833V196.036V196.241V196.445V196.65V196.855V197.061V197.266V197.472V197.679V197.885V198.092V198.299V198.506V198.714V198.921V199.129V199.338V199.546V199.755V199.963V200.172V200.382V200.591V200.801V201.01V201.22V201.43V201.641V201.851V202.061V202.272V202.483V202.694V202.905V203.116V203.327V203.539V203.75V203.962V204.173V204.385V204.597V204.809V205.021V205.233V205.445V205.657V205.869V206.081V206.293V206.505V206.717V206.93V207.142V207.354V207.566V207.778V207.99V208.203V208.415V208.627V208.839V209.051V209.262V209.474V209.686V209.898V210.109V210.321V210.532V210.743V210.955V211.166V211.377V211.587V211.798V212.009V212.219V212.429V212.639V212.849V213.059V213.269V213.478V213.687V213.897V214.105V214.314V214.522V214.731V214.939V215.146V215.354V215.561V215.768V215.975V216.182V216.388V216.594V216.8V217.005V217.21V217.415V217.62V217.824V218.028V218.232V218.435V218.638V218.841V219.043V219.245V219.447V219.648V219.849V220.05V220.25V220.45V220.649V220.848V221.047V221.245V221.443V221.64V221.837V222.033V222.229V222.425V222.62V222.815V223.009V223.203V223.396V223.589V223.782V223.973V224.165V224.356V224.546V224.736V224.925V225.114V225.302V225.49V225.677V225.864V226.05V226.235V226.42V226.605V226.789V226.972V227.154V227.336V227.518V227.699V227.879V228.058V228.237V228.416V228.593V228.77V228.947V229.123V229.298V229.472V229.646V229.819V229.991V230.163V230.334V230.504V230.673V230.842V231.01V231.178V231.344V231.51V231.675V231.84V232.003V232.166V232.328V232.49V232.65V232.81V232.969V233.127V233.284V233.441V233.596V233.751V233.905V234.059V234.211V234.362V234.513V234.663V234.812V234.96V235.107V235.253V235.399V235.543V235.687V235.83V235.971V236.112V236.252V236.391V236.529V236.666V236.802V236.938V237.072V237.205V237.337V237.469V237.599V237.728V237.857V237.984V238.11V238.236V238.36V238.483V238.605V238.727V238.847V238.966V239.084V239.201V239.317V239.431V239.545V239.658V239.769V239.88V239.989V240.097V240.204V240.31V240.415V240.519V240.621V240.723V240.823V240.922V241.02V241.117V241.213V241.307V241.4V241.492V241.583V241.673V241.761V241.848V241.934V242.019V242.102V242.184V242.265V242.345V242.424V242.501V242.577V242.651V242.725V242.797V242.867V242.937V243.005V243.072V243.137V243.202V243.264V243.326V243.386V243.445V243.502V243.558V243.613V243.666V243.718V243.769V243.818V243.866V243.912V243.957V244.001V244.043V244.084V244.123V244.161V244.197V244.232V244.265V244.297V244.328V244.357V244.384V244.41V244.435V244.458V244.48V244.5V244.518V244.535V244.551V244.565Z" fill="#18181B" stroke="#18181B" stroke-width="3"/>
<path d="M435.5 170.723C435.5 171.154 435.3 171.725 434.602 172.444C433.899 173.17 432.786 173.941 431.222 174.722C428.098 176.281 423.481 177.728 417.652 178.959C406.019 181.415 389.877 182.946 372 182.946C354.123 182.946 337.981 181.415 326.348 178.959C320.519 177.728 315.902 176.281 312.778 174.722C311.213 173.941 310.101 173.17 309.398 172.444C308.7 171.725 308.5 171.154 308.5 170.723C308.5 170.291 308.7 169.721 309.398 169.001C310.101 168.276 311.213 167.504 312.778 166.723C315.902 165.164 320.519 163.718 326.348 162.487C337.981 160.031 354.123 158.5 372 158.5C389.877 158.5 406.019 160.031 417.652 162.487C423.481 163.718 428.098 165.164 431.222 166.723C432.786 167.504 433.899 168.276 434.602 169.001C435.3 169.721 435.5 170.291 435.5 170.723Z" fill="white" stroke="#18181B" stroke-width="3"/>
<path d="M337.713 222V212.382H339.127L342.501 218.668L345.875 212.382H347.289V222H345.875V215.154L342.501 221.44L339.127 215.154V222H337.713ZM352.839 220.936C353.595 220.936 354.477 220.6 354.911 220.152L355.779 221.048C355.135 221.734 353.875 222.168 352.853 222.168C350.837 222.168 349.129 220.586 349.129 218.36C349.129 216.19 350.739 214.594 352.741 214.594C354.953 214.594 356.227 216.274 356.227 218.864H350.529C350.711 220.068 351.593 220.936 352.839 220.936ZM352.797 215.826C351.677 215.826 350.767 216.582 350.543 217.758H354.883C354.729 216.638 354.043 215.826 352.797 215.826ZM360.451 222.168C359.387 222.168 358.225 221.79 357.357 221.09L358.015 220.096C358.785 220.656 359.611 220.978 360.465 220.978C361.277 220.978 361.837 220.6 361.837 220.04C361.837 219.368 361.095 219.158 360.199 218.906C358.533 218.444 357.707 217.968 357.707 216.792C357.693 215.462 358.799 214.594 360.339 214.594C361.277 214.594 362.229 214.916 363.013 215.434L362.397 216.456C361.697 216.022 360.969 215.784 360.339 215.784C359.625 215.784 359.065 216.092 359.065 216.638C359.065 217.198 359.513 217.366 360.731 217.744C361.921 218.094 363.195 218.486 363.195 219.928C363.195 221.3 362.033 222.168 360.451 222.168ZM367.424 222.168C366.36 222.168 365.198 221.79 364.33 221.09L364.988 220.096C365.758 220.656 366.584 220.978 367.438 220.978C368.25 220.978 368.81 220.6 368.81 220.04C368.81 219.368 368.068 219.158 367.172 218.906C365.506 218.444 364.68 217.968 364.68 216.792C364.666 215.462 365.772 214.594 367.312 214.594C368.25 214.594 369.202 214.916 369.986 215.434L369.37 216.456C368.67 216.022 367.942 215.784 367.312 215.784C366.598 215.784 366.038 216.092 366.038 216.638C366.038 217.198 366.486 217.366 367.704 217.744C368.894 218.094 370.168 218.486 370.168 219.928C370.168 221.3 369.006 222.168 367.424 222.168ZM374.817 214.594C376.763 214.594 377.841 215.826 377.841 217.618V222H376.483V221.006C375.951 221.762 374.957 222.168 374.075 222.168C372.535 222.168 371.401 221.272 371.401 219.858C371.401 218.416 372.703 217.45 374.299 217.45C375.013 217.45 375.783 217.604 376.483 217.842V217.618C376.483 216.708 376.063 215.742 374.621 215.742C373.907 215.742 373.207 216.022 372.577 216.344L372.073 215.322C373.109 214.804 374.019 214.594 374.817 214.594ZM374.341 221.076C375.237 221.076 376.245 220.628 376.483 219.732V218.766C375.895 218.584 375.223 218.486 374.509 218.486C373.543 218.486 372.731 219.032 372.731 219.816C372.731 220.6 373.431 221.076 374.341 221.076ZM385.347 214.762H386.733V221.23C386.733 223.092 385.207 224.408 383.065 224.408C381.847 224.408 380.727 224.002 380.041 223.442L380.587 222.406C381.119 222.91 381.987 223.204 382.855 223.204C384.409 223.204 385.347 222.462 385.347 221.202V220.152C384.773 220.978 383.877 221.468 382.785 221.468C380.881 221.468 379.495 220.04 379.495 218.024C379.495 216.008 380.881 214.594 382.785 214.594C383.877 214.594 384.801 215.112 385.347 215.924V214.762ZM383.135 220.264C384.423 220.264 385.347 219.34 385.347 218.024C385.347 216.722 384.423 215.798 383.135 215.798C381.847 215.798 380.937 216.722 380.937 218.024C380.937 219.34 381.847 220.264 383.135 220.264ZM389.486 213.558C389.01 213.558 388.646 213.166 388.646 212.718C388.646 212.284 389.01 211.892 389.486 211.892C389.934 211.892 390.312 212.284 390.312 212.718C390.312 213.166 389.934 213.558 389.486 213.558ZM388.786 222V214.762H390.172V222H388.786ZM395.859 214.594C397.455 214.594 398.575 215.756 398.575 217.394V222H397.217V217.632C397.217 216.554 396.531 215.798 395.551 215.798C394.543 215.798 393.675 216.456 393.563 217.31V222H392.177V214.762H393.563V215.812C393.997 215.098 394.879 214.594 395.859 214.594ZM406.06 214.762H407.446V221.23C407.446 223.092 405.92 224.408 403.778 224.408C402.56 224.408 401.44 224.002 400.754 223.442L401.3 222.406C401.832 222.91 402.7 223.204 403.568 223.204C405.122 223.204 406.06 222.462 406.06 221.202V220.152C405.486 220.978 404.59 221.468 403.498 221.468C401.594 221.468 400.208 220.04 400.208 218.024C400.208 216.008 401.594 214.594 403.498 214.594C404.59 214.594 405.514 215.112 406.06 215.924V214.762ZM403.848 220.264C405.136 220.264 406.06 219.34 406.06 218.024C406.06 216.722 405.136 215.798 403.848 215.798C402.56 215.798 401.65 216.722 401.65 218.024C401.65 219.34 402.56 220.264 403.848 220.264ZM351.071 236V226.382H355.635C357.245 226.382 358.379 227.376 358.379 228.776C358.379 229.784 357.875 230.414 357.007 230.904C358.127 231.45 358.771 232.318 358.771 233.382C358.771 234.922 357.539 236 355.817 236H351.071ZM352.485 230.386H355.285C356.251 230.386 356.937 229.812 356.937 229.014C356.937 228.216 356.251 227.628 355.285 227.628H352.485V230.386ZM352.485 234.754H355.495C356.573 234.754 357.329 234.096 357.329 233.172C357.329 232.248 356.573 231.59 355.495 231.59H352.485V234.754ZM361.955 230.148C362.417 229.196 363.397 228.594 364.643 228.594V229.798C363.145 229.798 362.081 230.624 361.955 231.884V236H360.569V228.762H361.955V230.148ZM369.207 236.168C367.135 236.168 365.385 234.432 365.385 232.374C365.385 230.316 367.135 228.594 369.207 228.594C371.265 228.594 373.001 230.316 373.001 232.374C373.001 234.432 371.265 236.168 369.207 236.168ZM369.207 234.964C370.509 234.964 371.615 233.788 371.615 232.374C371.615 230.974 370.509 229.798 369.207 229.798C367.877 229.798 366.771 230.974 366.771 232.374C366.771 233.788 367.877 234.964 369.207 234.964ZM381.202 228.762L378.08 232.038L381.062 236H379.41L377.142 232.962L375.98 234.138V236H374.608V226.214H375.98V232.458L379.522 228.762H381.202ZM385.665 234.936C386.421 234.936 387.303 234.6 387.737 234.152L388.605 235.048C387.961 235.734 386.701 236.168 385.679 236.168C383.663 236.168 381.955 234.586 381.955 232.36C381.955 230.19 383.565 228.594 385.567 228.594C387.779 228.594 389.053 230.274 389.053 232.864H383.355C383.537 234.068 384.419 234.936 385.665 234.936ZM385.623 229.826C384.503 229.826 383.593 230.582 383.369 231.758H387.709C387.555 230.638 386.869 229.826 385.623 229.826ZM392.115 230.148C392.577 229.196 393.557 228.594 394.803 228.594V229.798C393.305 229.798 392.241 230.624 392.115 231.884V236H390.729V228.762H392.115V230.148Z" fill="white"/>
<path d="M450 195C449.448 195 449 195.448 449 196C449 196.552 449.448 197 450 197V195ZM551.707 196.707C552.098 196.317 552.098 195.683 551.707 195.293L545.343 188.929C544.953 188.538 544.319 188.538 543.929 188.929C543.538 189.319 543.538 189.953 543.929 190.343L549.586 196L543.929 201.657C543.538 202.047 543.538 202.681 543.929 203.071C544.319 203.462 544.953 203.462 545.343 203.071L551.707 196.707ZM450 197H551V195H450V197Z" fill="#18181B"/>
<path d="M449.293 221.293C448.902 221.683 448.902 222.317 449.293 222.707L455.657 229.071C456.047 229.462 456.681 229.462 457.071 229.071C457.462 228.681 457.462 228.047 457.071 227.657L451.414 222L457.071 216.343C457.462 215.953 457.462 215.319 457.071 214.929C456.681 214.538 456.047 214.538 455.657 214.929L449.293 221.293ZM551 223C551.552 223 552 222.552 552 222C552 221.448 551.552 221 551 221V223ZM450 223H551V221H450V223Z" fill="#18181B"/>
<path d="M473.537 177.102C471.896 177.102 470.502 175.716 470.502 174.076C470.502 172.435 471.896 171.058 473.537 171.058C474.37 171.058 475.135 171.407 475.687 171.976L475.084 172.554C474.693 172.129 474.14 171.849 473.537 171.849C472.372 171.849 471.386 172.869 471.386 174.076C471.386 175.291 472.372 176.311 473.537 176.311C474.14 176.311 474.693 176.031 475.084 175.606L475.687 176.184C475.135 176.745 474.37 177.102 473.537 177.102ZM479.571 177.102C477.93 177.102 476.536 175.716 476.536 174.076C476.536 172.435 477.93 171.058 479.571 171.058C481.211 171.058 482.588 172.435 482.588 174.076C482.588 175.716 481.211 177.102 479.571 177.102ZM479.571 176.311C480.735 176.311 481.713 175.291 481.713 174.076C481.713 172.869 480.735 171.849 479.571 171.849C478.406 171.849 477.42 172.869 477.42 174.076C477.42 175.291 478.406 176.311 479.571 176.311ZM484.081 177V171.16H484.939L488.297 175.589V171.16H489.155V177H488.297L484.939 172.571V177H484.081ZM492.968 177.094C491.99 177.094 491.183 176.753 490.562 176.158L491.081 175.521C491.599 176.014 492.211 176.337 493.002 176.337C493.809 176.337 494.226 175.912 494.226 175.444C494.226 174.892 493.741 174.679 492.764 174.458C491.574 174.178 490.783 173.821 490.783 172.767C490.783 171.789 491.633 171.05 492.806 171.05C493.707 171.05 494.379 171.381 494.94 171.874L494.447 172.52C493.954 172.07 493.367 171.806 492.772 171.806C492.118 171.806 491.659 172.223 491.659 172.69C491.659 173.234 492.16 173.421 493.121 173.651C494.285 173.923 495.093 174.314 495.093 175.359C495.093 176.345 494.345 177.094 492.968 177.094ZM499.038 177.102C497.567 177.102 496.53 176.039 496.53 174.543V171.16H497.389V174.526C497.389 175.572 498.069 176.32 499.038 176.32C499.998 176.32 500.678 175.572 500.678 174.526V171.16H501.545V174.543C501.545 176.039 500.5 177.102 499.038 177.102ZM503.296 177V171.16H504.155L506.203 174.977L508.252 171.16H509.11V177H508.252V172.843L506.203 176.66L504.155 172.843V177H503.296ZM510.839 177V171.16H511.698V177H510.839ZM513.423 177V171.16H514.281L517.639 175.589V171.16H518.497V177H517.639L514.281 172.571V177H513.423ZM522.913 174.603V173.855H525.327V176.184C524.774 176.745 523.856 177.102 523.032 177.102C521.391 177.102 519.989 175.716 519.989 174.076C519.989 172.435 521.391 171.058 523.032 171.058C523.856 171.058 524.774 171.407 525.327 171.976L524.723 172.554C524.324 172.121 523.635 171.849 523.032 171.849C521.859 171.849 520.873 172.869 520.873 174.076C520.873 175.291 521.859 176.311 523.032 176.311C523.525 176.311 524.077 176.133 524.477 175.827V174.603H522.913ZM464.553 189V183.959H462.64V183.16H467.332V183.959H465.411V189H464.553ZM473.272 185.064C473.272 185.965 472.66 186.654 471.776 186.883L473.264 189H472.278L470.85 186.968H469.507V189H468.648V183.16H471.105C472.337 183.16 473.272 183.951 473.272 185.064ZM469.507 183.959V186.169H470.986C471.827 186.169 472.397 185.753 472.397 185.064C472.397 184.376 471.827 183.959 470.986 183.959H469.507ZM479.19 189L478.68 187.81H475.637L475.127 189H474.175L476.682 183.16H477.634L480.142 189H479.19ZM475.968 187.036H478.348L477.158 184.265L475.968 187.036ZM481.442 189V183.16H482.3L485.658 187.589V183.16H486.516V189H485.658L482.3 184.571V189H481.442ZM490.328 189.094C489.351 189.094 488.543 188.753 487.923 188.158L488.441 187.521C488.96 188.014 489.572 188.337 490.362 188.337C491.17 188.337 491.586 187.912 491.586 187.444C491.586 186.892 491.102 186.679 490.124 186.458C488.934 186.178 488.144 185.821 488.144 184.767C488.144 183.789 488.994 183.05 490.167 183.05C491.068 183.05 491.739 183.381 492.3 183.874L491.807 184.52C491.314 184.07 490.728 183.806 490.133 183.806C489.478 183.806 489.019 184.223 489.019 184.69C489.019 185.234 489.521 185.421 490.481 185.651C491.646 185.923 492.453 186.314 492.453 187.359C492.453 188.345 491.705 189.094 490.328 189.094ZM498.447 189L497.937 187.81H494.894L494.384 189H493.432L495.939 183.16H496.891L499.399 189H498.447ZM495.225 187.036H497.605L496.415 184.265L495.225 187.036ZM503.401 189.102C501.761 189.102 500.367 187.716 500.367 186.076C500.367 184.435 501.761 183.058 503.401 183.058C504.234 183.058 504.999 183.407 505.552 183.976L504.948 184.554C504.557 184.129 504.005 183.849 503.401 183.849C502.237 183.849 501.251 184.869 501.251 186.076C501.251 187.291 502.237 188.311 503.401 188.311C504.005 188.311 504.557 188.031 504.948 187.606L505.552 188.184C504.999 188.745 504.234 189.102 503.401 189.102ZM508.379 189V183.959H506.466V183.16H511.158V183.959H509.237V189H508.379ZM512.483 189V183.16H513.341V189H512.483ZM517.769 189.102C516.128 189.102 514.734 187.716 514.734 186.076C514.734 184.435 516.128 183.058 517.769 183.058C519.409 183.058 520.786 184.435 520.786 186.076C520.786 187.716 519.409 189.102 517.769 189.102ZM517.769 188.311C518.933 188.311 519.911 187.291 519.911 186.076C519.911 184.869 518.933 183.849 517.769 183.849C516.604 183.849 515.618 184.869 515.618 186.076C515.618 187.291 516.604 188.311 517.769 188.311ZM522.279 189V183.16H523.138L526.495 187.589V183.16H527.354V189H526.495L523.138 184.571V189H522.279ZM531.166 189.094C530.188 189.094 529.381 188.753 528.76 188.158L529.279 187.521C529.797 188.014 530.409 188.337 531.2 188.337C532.007 188.337 532.424 187.912 532.424 187.444C532.424 186.892 531.939 186.679 530.962 186.458C529.772 186.178 528.981 185.821 528.981 184.767C528.981 183.789 529.831 183.05 531.004 183.05C531.905 183.05 532.577 183.381 533.138 183.874L532.645 184.52C532.152 184.07 531.565 183.806 530.97 183.806C530.316 183.806 529.857 184.223 529.857 184.69C529.857 185.234 530.358 185.421 531.319 185.651C532.483 185.923 533.291 186.314 533.291 187.359C533.291 188.345 532.543 189.094 531.166 189.094Z" fill="#18181B"/>
<path d="M471.529 237V231.16H473.985C475.218 231.16 476.153 231.951 476.153 233.064C476.153 234.178 475.218 234.968 473.985 234.968H472.387V237H471.529ZM472.387 234.169H473.866C474.708 234.169 475.277 233.753 475.277 233.064C475.277 232.376 474.708 231.959 473.866 231.959H472.387V234.169ZM479.939 237.102C478.468 237.102 477.431 236.039 477.431 234.543V231.16H478.29V234.526C478.29 235.572 478.97 236.32 479.939 236.32C480.899 236.32 481.579 235.572 481.579 234.526V231.16H482.446V234.543C482.446 236.039 481.401 237.102 479.939 237.102ZM484.197 237V231.16H486.968C487.946 231.16 488.634 231.764 488.634 232.614C488.634 233.226 488.328 233.608 487.801 233.906C488.481 234.237 488.872 234.764 488.872 235.41C488.872 236.345 488.124 237 487.079 237H484.197ZM485.056 233.591H486.756C487.342 233.591 487.759 233.243 487.759 232.758C487.759 232.274 487.342 231.917 486.756 231.917H485.056V233.591ZM485.056 236.243H486.883C487.538 236.243 487.997 235.844 487.997 235.283C487.997 234.722 487.538 234.322 486.883 234.322H485.056V236.243ZM491.078 236.201H494.172V237H490.211V231.16H491.078V236.201ZM495.425 237V231.16H496.284V237H495.425ZM499.998 237.094C499.02 237.094 498.213 236.753 497.592 236.158L498.111 235.521C498.629 236.014 499.241 236.337 500.032 236.337C500.839 236.337 501.256 235.912 501.256 235.444C501.256 234.892 500.771 234.679 499.794 234.458C498.604 234.178 497.813 233.821 497.813 232.767C497.813 231.789 498.663 231.05 499.836 231.05C500.737 231.05 501.409 231.381 501.97 231.874L501.477 232.52C500.984 232.07 500.397 231.806 499.802 231.806C499.148 231.806 498.689 232.223 498.689 232.69C498.689 233.234 499.19 233.421 500.151 233.651C501.315 233.923 502.123 234.314 502.123 235.359C502.123 236.345 501.375 237.094 499.998 237.094ZM507.564 231.16H508.422V237H507.564V234.424H504.376V237H503.518V231.16H504.376V233.625H507.564V231.16ZM510.042 237V231.16H510.901V237H510.042ZM512.626 237V231.16H513.484L516.842 235.589V231.16H517.7V237H516.842L513.484 232.571V237H512.626ZM522.116 234.603V233.855H524.53V236.184C523.977 236.745 523.059 237.102 522.235 237.102C520.594 237.102 519.192 235.716 519.192 234.076C519.192 232.435 520.594 231.058 522.235 231.058C523.059 231.058 523.977 231.407 524.53 231.976L523.926 232.554C523.527 232.121 522.838 231.849 522.235 231.849C521.062 231.849 520.076 232.869 520.076 234.076C520.076 235.291 521.062 236.311 522.235 236.311C522.728 236.311 523.28 236.133 523.68 235.827V234.603H522.116ZM479.98 243.959H476.554V245.625H479.648V246.424H476.554V248.201H479.98V249H475.687V243.16H479.98V243.959ZM481.5 249V243.16H482.358L485.716 247.589V243.16H486.574V249H485.716L482.358 244.571V249H481.5ZM492.919 245.064C492.919 245.965 492.307 246.654 491.423 246.883L492.911 249H491.925L490.497 246.968H489.154V249H488.295V243.16H490.752C491.984 243.16 492.919 243.951 492.919 245.064ZM489.154 243.959V246.169H490.633C491.474 246.169 492.044 245.753 492.044 245.064C492.044 244.376 491.474 243.959 490.633 243.959H489.154ZM494.247 249V243.16H495.105V249H494.247ZM499.533 249.102C497.893 249.102 496.499 247.716 496.499 246.076C496.499 244.435 497.893 243.058 499.533 243.058C500.366 243.058 501.131 243.407 501.684 243.976L501.08 244.554C500.689 244.129 500.137 243.849 499.533 243.849C498.369 243.849 497.383 244.869 497.383 246.076C497.383 247.291 498.369 248.311 499.533 248.311C500.137 248.311 500.689 248.031 501.08 247.606L501.684 248.184C501.131 248.745 500.366 249.102 499.533 249.102ZM506.933 243.16H507.792V249H506.933V246.424H503.746V249H502.887V243.16H503.746V245.625H506.933V243.16ZM513.695 243.959H510.27V245.625H513.364V246.424H510.27V248.201H513.695V249H509.403V243.16H513.695V243.959ZM515.215 249V243.16H517.23C519.117 243.16 520.46 244.367 520.46 246.076C520.46 247.784 519.117 249 517.23 249H515.215ZM516.074 248.218H517.281C518.632 248.218 519.576 247.334 519.576 246.076C519.576 244.826 518.632 243.942 517.281 243.942H516.074V248.218ZM464.553 261V255.959H462.64V255.16H467.332V255.959H465.411V261H464.553ZM473.272 257.064C473.272 257.965 472.66 258.654 471.776 258.883L473.264 261H472.278L470.85 258.968H469.507V261H468.648V255.16H471.105C472.337 255.16 473.272 255.951 473.272 257.064ZM469.507 255.959V258.169H470.986C471.827 258.169 472.397 257.753 472.397 257.064C472.397 256.376 471.827 255.959 470.986 255.959H469.507ZM479.19 261L478.68 259.81H475.637L475.127 261H474.175L476.682 255.16H477.634L480.142 261H479.19ZM475.968 259.036H478.348L477.158 256.265L475.968 259.036ZM481.442 261V255.16H482.3L485.658 259.589V255.16H486.516V261H485.658L482.3 256.571V261H481.442ZM490.328 261.094C489.351 261.094 488.543 260.753 487.923 260.158L488.441 259.521C488.96 260.014 489.572 260.337 490.362 260.337C491.17 260.337 491.586 259.912 491.586 259.444C491.586 258.892 491.102 258.679 490.124 258.458C488.934 258.178 488.144 257.821 488.144 256.767C488.144 255.789 488.994 255.05 490.167 255.05C491.068 255.05 491.739 255.381 492.3 255.874L491.807 256.52C491.314 256.07 490.728 255.806 490.133 255.806C489.478 255.806 489.019 256.223 489.019 256.69C489.019 257.234 489.521 257.421 490.481 257.651C491.646 257.923 492.453 258.314 492.453 259.359C492.453 260.345 491.705 261.094 490.328 261.094ZM498.447 261L497.937 259.81H494.894L494.384 261H493.432L495.939 255.16H496.891L499.399 261H498.447ZM495.225 259.036H497.605L496.415 256.265L495.225 259.036ZM503.401 261.102C501.761 261.102 500.367 259.716 500.367 258.076C500.367 256.435 501.761 255.058 503.401 255.058C504.234 255.058 504.999 255.407 505.552 255.976L504.948 256.554C504.557 256.129 504.005 255.849 503.401 255.849C502.237 255.849 501.251 256.869 501.251 258.076C501.251 259.291 502.237 260.311 503.401 260.311C504.005 260.311 504.557 260.031 504.948 259.606L505.552 260.184C504.999 260.745 504.234 261.102 503.401 261.102ZM508.379 261V255.959H506.466V255.16H511.158V255.959H509.237V261H508.379ZM512.483 261V255.16H513.341V261H512.483ZM517.769 261.102C516.128 261.102 514.734 259.716 514.734 258.076C514.734 256.435 516.128 255.058 517.769 255.058C519.409 255.058 520.786 256.435 520.786 258.076C520.786 259.716 519.409 261.102 517.769 261.102ZM517.769 260.311C518.933 260.311 519.911 259.291 519.911 258.076C519.911 256.869 518.933 255.849 517.769 255.849C516.604 255.849 515.618 256.869 515.618 258.076C515.618 259.291 516.604 260.311 517.769 260.311ZM522.279 261V255.16H523.138L526.495 259.589V255.16H527.354V261H526.495L523.138 256.571V261H522.279ZM531.166 261.094C530.188 261.094 529.381 260.753 528.76 260.158L529.279 259.521C529.797 260.014 530.409 260.337 531.2 260.337C532.007 260.337 532.424 259.912 532.424 259.444C532.424 258.892 531.939 258.679 530.962 258.458C529.772 258.178 528.981 257.821 528.981 256.767C528.981 255.789 529.831 255.05 531.004 255.05C531.905 255.05 532.577 255.381 533.138 255.874L532.645 256.52C532.152 256.07 531.565 255.806 530.97 255.806C530.316 255.806 529.857 256.223 529.857 256.69C529.857 257.234 530.358 257.421 531.319 257.651C532.483 257.923 533.291 258.314 533.291 259.359C533.291 260.345 532.543 261.094 531.166 261.094Z" fill="#18181B"/>
<path d="M194 207C193.448 207 193 207.448 193 208C193 208.552 193.448 209 194 209V207ZM295.707 208.707C296.098 208.317 296.098 207.683 295.707 207.293L289.343 200.929C288.953 200.538 288.319 200.538 287.929 200.929C287.538 201.319 287.538 201.953 287.929 202.343L293.586 208L287.929 213.657C287.538 214.047 287.538 214.681 287.929 215.071C288.319 215.462 288.953 215.462 289.343 215.071L295.707 208.707ZM194 209H295V207H194V209Z" fill="#18181B"/>
<path d="M212.529 225V219.16H214.985C216.218 219.16 217.153 219.951 217.153 221.064C217.153 222.178 216.218 222.968 214.985 222.968H213.387V225H212.529ZM213.387 222.169H214.866C215.708 222.169 216.277 221.753 216.277 221.064C216.277 220.376 215.708 219.959 214.866 219.959H213.387V222.169ZM220.939 225.102C219.468 225.102 218.431 224.039 218.431 222.543V219.16H219.29V222.526C219.29 223.572 219.97 224.32 220.939 224.32C221.899 224.32 222.579 223.572 222.579 222.526V219.16H223.446V222.543C223.446 224.039 222.401 225.102 220.939 225.102ZM225.197 225V219.16H227.968C228.946 219.16 229.634 219.764 229.634 220.614C229.634 221.226 229.328 221.608 228.801 221.906C229.481 222.237 229.872 222.764 229.872 223.41C229.872 224.345 229.124 225 228.079 225H225.197ZM226.056 221.591H227.756C228.342 221.591 228.759 221.243 228.759 220.758C228.759 220.274 228.342 219.917 227.756 219.917H226.056V221.591ZM226.056 224.243H227.883C228.538 224.243 228.997 223.844 228.997 223.283C228.997 222.722 228.538 222.322 227.883 222.322H226.056V224.243ZM232.078 224.201H235.172V225H231.211V219.16H232.078V224.201ZM236.425 225V219.16H237.284V225H236.425ZM240.998 225.094C240.02 225.094 239.213 224.753 238.592 224.158L239.111 223.521C239.629 224.014 240.241 224.337 241.032 224.337C241.839 224.337 242.256 223.912 242.256 223.444C242.256 222.892 241.771 222.679 240.794 222.458C239.604 222.178 238.813 221.821 238.813 220.767C238.813 219.789 239.663 219.05 240.836 219.05C241.737 219.05 242.409 219.381 242.97 219.874L242.477 220.52C241.984 220.07 241.397 219.806 240.802 219.806C240.148 219.806 239.689 220.223 239.689 220.69C239.689 221.234 240.19 221.421 241.151 221.651C242.315 221.923 243.123 222.314 243.123 223.359C243.123 224.345 242.375 225.094 240.998 225.094ZM248.564 219.16H249.422V225H248.564V222.424H245.376V225H244.518V219.16H245.376V221.625H248.564V219.16ZM251.042 225V219.16H251.901V225H251.042ZM253.626 225V219.16H254.484L257.842 223.589V219.16H258.7V225H257.842L254.484 220.571V225H253.626ZM263.116 222.603V221.855H265.53V224.184C264.977 224.745 264.059 225.102 263.235 225.102C261.594 225.102 260.192 223.716 260.192 222.076C260.192 220.435 261.594 219.058 263.235 219.058C264.059 219.058 264.977 219.407 265.53 219.976L264.926 220.554C264.527 220.121 263.838 219.849 263.235 219.849C262.062 219.849 261.076 220.869 261.076 222.076C261.076 223.291 262.062 224.311 263.235 224.311C263.728 224.311 264.28 224.133 264.68 223.827V222.603H263.116ZM205.553 237V231.959H203.64V231.16H208.332V231.959H206.411V237H205.553ZM214.272 233.064C214.272 233.965 213.66 234.654 212.776 234.883L214.264 237H213.278L211.85 234.968H210.507V237H209.648V231.16H212.105C213.337 231.16 214.272 231.951 214.272 233.064ZM210.507 231.959V234.169H211.986C212.827 234.169 213.397 233.753 213.397 233.064C213.397 232.376 212.827 231.959 211.986 231.959H210.507ZM220.19 237L219.68 235.81H216.637L216.127 237H215.175L217.682 231.16H218.634L221.142 237H220.19ZM216.968 235.036H219.348L218.158 232.265L216.968 235.036ZM222.442 237V231.16H223.3L226.658 235.589V231.16H227.516V237H226.658L223.3 232.571V237H222.442ZM231.328 237.094C230.351 237.094 229.543 236.753 228.923 236.158L229.441 235.521C229.96 236.014 230.572 236.337 231.362 236.337C232.17 236.337 232.586 235.912 232.586 235.444C232.586 234.892 232.102 234.679 231.124 234.458C229.934 234.178 229.144 233.821 229.144 232.767C229.144 231.789 229.994 231.05 231.167 231.05C232.068 231.05 232.739 231.381 233.3 231.874L232.807 232.52C232.314 232.07 231.728 231.806 231.133 231.806C230.478 231.806 230.019 232.223 230.019 232.69C230.019 233.234 230.521 233.421 231.481 233.651C232.646 233.923 233.453 234.314 233.453 235.359C233.453 236.345 232.705 237.094 231.328 237.094ZM239.447 237L238.937 235.81H235.894L235.384 237H234.432L236.939 231.16H237.891L240.399 237H239.447ZM236.225 235.036H238.605L237.415 232.265L236.225 235.036ZM244.401 237.102C242.761 237.102 241.367 235.716 241.367 234.076C241.367 232.435 242.761 231.058 244.401 231.058C245.234 231.058 245.999 231.407 246.552 231.976L245.948 232.554C245.557 232.129 245.005 231.849 244.401 231.849C243.237 231.849 242.251 232.869 242.251 234.076C242.251 235.291 243.237 236.311 244.401 236.311C245.005 236.311 245.557 236.031 245.948 235.606L246.552 236.184C245.999 236.745 245.234 237.102 244.401 237.102ZM249.379 237V231.959H247.466V231.16H252.158V231.959H250.237V237H249.379ZM253.483 237V231.16H254.341V237H253.483ZM258.769 237.102C257.128 237.102 255.734 235.716 255.734 234.076C255.734 232.435 257.128 231.058 258.769 231.058C260.409 231.058 261.786 232.435 261.786 234.076C261.786 235.716 260.409 237.102 258.769 237.102ZM258.769 236.311C259.933 236.311 260.911 235.291 260.911 234.076C260.911 232.869 259.933 231.849 258.769 231.849C257.604 231.849 256.618 232.869 256.618 234.076C256.618 235.291 257.604 236.311 258.769 236.311ZM263.279 237V231.16H264.138L267.495 235.589V231.16H268.354V237H267.495L264.138 232.571V237H263.279ZM272.166 237.094C271.188 237.094 270.381 236.753 269.76 236.158L270.279 235.521C270.797 236.014 271.409 236.337 272.2 236.337C273.007 236.337 273.424 235.912 273.424 235.444C273.424 234.892 272.939 234.679 271.962 234.458C270.772 234.178 269.981 233.821 269.981 232.767C269.981 231.789 270.831 231.05 272.004 231.05C272.905 231.05 273.577 231.381 274.138 231.874L273.645 232.52C273.152 232.07 272.565 231.806 271.97 231.806C271.316 231.806 270.857 232.223 270.857 232.69C270.857 233.234 271.358 233.421 272.319 233.651C273.483 233.923 274.291 234.314 274.291 235.359C274.291 236.345 273.543 237.094 272.166 237.094Z" fill="#18181B"/>
<rect x="22.5" y="186.5" width="158" height="43" rx="14.5" fill="white" stroke="#18181B" stroke-width="3"/>
<path d="M41.8456 212.154C40.2356 212.154 38.9056 211.594 37.8836 210.614L38.7376 209.564C39.5916 210.376 40.5996 210.908 41.9016 210.908C43.2316 210.908 43.9176 210.208 43.9176 209.438C43.9176 208.528 43.1196 208.178 41.5096 207.814C39.5496 207.352 38.2476 206.764 38.2476 205.028C38.2476 203.418 39.6476 202.2 41.5796 202.2C43.0636 202.2 44.1696 202.746 45.0936 203.558L44.2816 204.622C43.4696 203.88 42.5036 203.446 41.5236 203.446C40.4456 203.446 39.6896 204.132 39.6896 204.902C39.6896 205.798 40.5156 206.106 42.0976 206.484C44.0156 206.932 45.3456 207.576 45.3456 209.298C45.3456 210.922 44.1136 212.154 41.8456 212.154ZM50.4712 212.168C48.3992 212.168 46.6492 210.432 46.6492 208.374C46.6492 206.316 48.3992 204.594 50.4712 204.594C52.5292 204.594 54.2652 206.316 54.2652 208.374C54.2652 210.432 52.5292 212.168 50.4712 212.168ZM50.4712 210.964C51.7732 210.964 52.8792 209.788 52.8792 208.374C52.8792 206.974 51.7732 205.798 50.4712 205.798C49.1412 205.798 48.0352 206.974 48.0352 208.374C48.0352 209.788 49.1412 210.964 50.4712 210.964ZM60.8709 204.762H62.2569V212H60.8709V210.95C60.4369 211.664 59.5549 212.168 58.5749 212.168C56.9789 212.168 55.8589 211.006 55.8589 209.368V204.762H57.2169V209.13C57.2169 210.208 57.9029 210.964 58.8829 210.964C59.8909 210.964 60.7589 210.306 60.8709 209.452V204.762ZM65.7238 206.148C66.1858 205.196 67.1658 204.594 68.4118 204.594V205.798C66.9138 205.798 65.8498 206.624 65.7238 207.884V212H64.3378V204.762H65.7238V206.148ZM73.1799 212.168C71.1219 212.168 69.3719 210.432 69.3719 208.374C69.3719 206.316 71.1219 204.594 73.1939 204.594C74.2299 204.594 75.1679 205.028 75.8539 205.714L74.9159 206.582C74.4819 206.092 73.8519 205.798 73.1799 205.798C71.8639 205.798 70.7719 206.974 70.7719 208.374C70.7719 209.788 71.8639 210.964 73.1939 210.964C73.8659 210.964 74.5099 210.656 74.9579 210.152L75.8959 211.006C75.1959 211.72 74.2579 212.168 73.1799 212.168ZM80.6971 210.936C81.4531 210.936 82.3351 210.6 82.7691 210.152L83.6371 211.048C82.9931 211.734 81.7331 212.168 80.7111 212.168C78.6951 212.168 76.9871 210.586 76.9871 208.36C76.9871 206.19 78.5971 204.594 80.5991 204.594C82.8111 204.594 84.0851 206.274 84.0851 208.864H78.3871C78.5691 210.068 79.4511 210.936 80.6971 210.936ZM80.6551 205.826C79.5351 205.826 78.6251 206.582 78.4011 207.758H82.7411C82.5871 206.638 81.9011 205.826 80.6551 205.826ZM97.3135 212L96.4735 210.04H91.4615L90.6215 212H89.0535L93.1835 202.382H94.7515L98.8815 212H97.3135ZM92.0075 208.766H95.9275L93.9675 204.202L92.0075 208.766ZM104.27 204.594C106.174 204.594 107.602 206.162 107.602 208.374C107.602 210.6 106.174 212.168 104.27 212.168C103.15 212.168 102.254 211.636 101.694 210.74V214.408H100.322V204.762H101.694V206.008C102.254 205.126 103.15 204.594 104.27 204.594ZM103.934 210.964C105.264 210.964 106.202 209.886 106.202 208.374C106.202 206.862 105.264 205.798 103.934 205.798C102.632 205.798 101.694 206.862 101.694 208.374C101.694 209.886 102.632 210.964 103.934 210.964ZM113.294 204.594C115.198 204.594 116.626 206.162 116.626 208.374C116.626 210.6 115.198 212.168 113.294 212.168C112.174 212.168 111.278 211.636 110.718 210.74V214.408H109.346V204.762H110.718V206.008C111.278 205.126 112.174 204.594 113.294 204.594ZM112.958 210.964C114.288 210.964 115.226 209.886 115.226 208.374C115.226 206.862 114.288 205.798 112.958 205.798C111.656 205.798 110.718 206.862 110.718 208.374C110.718 209.886 111.656 210.964 112.958 210.964ZM118.299 212V202.214H119.671V212H118.299ZM122.376 203.558C121.9 203.558 121.536 203.166 121.536 202.718C121.536 202.284 121.9 201.892 122.376 201.892C122.824 201.892 123.202 202.284 123.202 202.718C123.202 203.166 122.824 203.558 122.376 203.558ZM121.676 212V204.762H123.062V212H121.676ZM128.483 212.168C126.425 212.168 124.675 210.432 124.675 208.374C124.675 206.316 126.425 204.594 128.497 204.594C129.533 204.594 130.471 205.028 131.157 205.714L130.219 206.582C129.785 206.092 129.155 205.798 128.483 205.798C127.167 205.798 126.075 206.974 126.075 208.374C126.075 209.788 127.167 210.964 128.497 210.964C129.169 210.964 129.813 210.656 130.261 210.152L131.199 211.006C130.499 211.72 129.561 212.168 128.483 212.168ZM135.72 204.594C137.666 204.594 138.744 205.826 138.744 207.618V212H137.386V211.006C136.854 211.762 135.86 212.168 134.978 212.168C133.438 212.168 132.304 211.272 132.304 209.858C132.304 208.416 133.606 207.45 135.202 207.45C135.916 207.45 136.686 207.604 137.386 207.842V207.618C137.386 206.708 136.966 205.742 135.524 205.742C134.81 205.742 134.11 206.022 133.48 206.344L132.976 205.322C134.012 204.804 134.922 204.594 135.72 204.594ZM135.244 211.076C136.14 211.076 137.148 210.628 137.386 209.732V208.766C136.798 208.584 136.126 208.486 135.412 208.486C134.446 208.486 133.634 209.032 133.634 209.816C133.634 210.6 134.334 211.076 135.244 211.076ZM144.136 210.698L144.64 211.65C144.248 211.972 143.716 212.168 143.198 212.168C142.078 212.168 141.294 211.356 141.294 210.194V205.938H140.202V204.762H141.294V202.774H142.652V204.762H144.36V205.938H142.652V210.096C142.652 210.6 142.988 210.964 143.394 210.964C143.702 210.964 143.982 210.852 144.136 210.698ZM146.739 203.558C146.263 203.558 145.899 203.166 145.899 202.718C145.899 202.284 146.263 201.892 146.739 201.892C147.187 201.892 147.565 202.284 147.565 202.718C147.565 203.166 147.187 203.558 146.739 203.558ZM146.039 212V204.762H147.425V212H146.039ZM152.86 212.168C150.788 212.168 149.038 210.432 149.038 208.374C149.038 206.316 150.788 204.594 152.86 204.594C154.918 204.594 156.654 206.316 156.654 208.374C156.654 210.432 154.918 212.168 152.86 212.168ZM152.86 210.964C154.162 210.964 155.268 209.788 155.268 208.374C155.268 206.974 154.162 205.798 152.86 205.798C151.53 205.798 150.424 206.974 150.424 208.374C150.424 209.788 151.53 210.964 152.86 210.964ZM161.958 204.594C163.554 204.594 164.674 205.756 164.674 207.394V212H163.316V207.632C163.316 206.554 162.63 205.798 161.65 205.798C160.642 205.798 159.774 206.456 159.662 207.31V212H158.276V204.762H159.662V205.812C160.096 205.098 160.978 204.594 161.958 204.594Z" fill="#18181B"/>
<rect x="563.5" y="186.5" width="158" height="43" rx="14.5" fill="white" stroke="#18181B" stroke-width="3"/>
<path d="M582.185 203.698H576.543V206.442H581.639V207.758H576.543V210.684H582.185V212H575.115V202.382H582.185V203.698ZM587.601 204.594C589.197 204.594 590.317 205.756 590.317 207.394V212H588.959V207.632C588.959 206.554 588.273 205.798 587.293 205.798C586.285 205.798 585.417 206.456 585.305 207.31V212H583.919V204.762H585.305V205.812C585.739 205.098 586.621 204.594 587.601 204.594ZM593.756 206.148C594.218 205.196 595.198 204.594 596.444 204.594V205.798C594.946 205.798 593.882 206.624 593.756 207.884V212H592.37V204.762H593.756V206.148ZM598.482 203.558C598.006 203.558 597.642 203.166 597.642 202.718C597.642 202.284 598.006 201.892 598.482 201.892C598.93 201.892 599.308 202.284 599.308 202.718C599.308 203.166 598.93 203.558 598.482 203.558ZM597.782 212V204.762H599.168V212H597.782ZM604.589 212.168C602.531 212.168 600.781 210.432 600.781 208.374C600.781 206.316 602.531 204.594 604.603 204.594C605.639 204.594 606.577 205.028 607.263 205.714L606.325 206.582C605.891 206.092 605.261 205.798 604.589 205.798C603.273 205.798 602.181 206.974 602.181 208.374C602.181 209.788 603.273 210.964 604.603 210.964C605.275 210.964 605.919 210.656 606.367 210.152L607.305 211.006C606.605 211.72 605.667 212.168 604.589 212.168ZM612.47 204.594C614.066 204.594 615.186 205.756 615.186 207.394V212H613.828V207.632C613.828 206.554 613.142 205.798 612.162 205.798C611.07 205.798 610.16 206.568 610.16 207.506V212H608.788V202.214H610.16V205.84C610.594 205.112 611.476 204.594 612.47 204.594ZM620.487 210.936C621.243 210.936 622.125 210.6 622.559 210.152L623.427 211.048C622.783 211.734 621.523 212.168 620.501 212.168C618.485 212.168 616.777 210.586 616.777 208.36C616.777 206.19 618.387 204.594 620.389 204.594C622.601 204.594 623.875 206.274 623.875 208.864H618.177C618.359 210.068 619.241 210.936 620.487 210.936ZM620.445 205.826C619.325 205.826 618.415 206.582 618.191 207.758H622.531C622.377 206.638 621.691 205.826 620.445 205.826ZM626.938 206.148C627.4 205.196 628.38 204.594 629.626 204.594V205.798C628.128 205.798 627.064 206.624 626.938 207.884V212H625.552V204.762H626.938V206.148ZM642.6 212L641.76 210.04H636.748L635.908 212H634.34L638.47 202.382H640.038L644.168 212H642.6ZM637.294 208.766H641.214L639.254 204.202L637.294 208.766ZM649.556 204.594C651.46 204.594 652.888 206.162 652.888 208.374C652.888 210.6 651.46 212.168 649.556 212.168C648.436 212.168 647.54 211.636 646.98 210.74V214.408H645.608V204.762H646.98V206.008C647.54 205.126 648.436 204.594 649.556 204.594ZM649.22 210.964C650.55 210.964 651.488 209.886 651.488 208.374C651.488 206.862 650.55 205.798 649.22 205.798C647.918 205.798 646.98 206.862 646.98 208.374C646.98 209.886 647.918 210.964 649.22 210.964ZM658.58 204.594C660.484 204.594 661.912 206.162 661.912 208.374C661.912 210.6 660.484 212.168 658.58 212.168C657.46 212.168 656.564 211.636 656.004 210.74V214.408H654.632V204.762H656.004V206.008C656.564 205.126 657.46 204.594 658.58 204.594ZM658.244 210.964C659.574 210.964 660.512 209.886 660.512 208.374C660.512 206.862 659.574 205.798 658.244 205.798C656.942 205.798 656.004 206.862 656.004 208.374C656.004 209.886 656.942 210.964 658.244 210.964ZM663.585 212V202.214H664.957V212H663.585ZM667.662 203.558C667.186 203.558 666.822 203.166 666.822 202.718C666.822 202.284 667.186 201.892 667.662 201.892C668.11 201.892 668.488 202.284 668.488 202.718C668.488 203.166 668.11 203.558 667.662 203.558ZM666.962 212V204.762H668.348V212H666.962ZM673.769 212.168C671.711 212.168 669.961 210.432 669.961 208.374C669.961 206.316 671.711 204.594 673.783 204.594C674.819 204.594 675.757 205.028 676.443 205.714L675.505 206.582C675.071 206.092 674.441 205.798 673.769 205.798C672.453 205.798 671.361 206.974 671.361 208.374C671.361 209.788 672.453 210.964 673.783 210.964C674.455 210.964 675.099 210.656 675.547 210.152L676.485 211.006C675.785 211.72 674.847 212.168 673.769 212.168ZM681.006 204.594C682.952 204.594 684.03 205.826 684.03 207.618V212H682.672V211.006C682.14 211.762 681.146 212.168 680.264 212.168C678.724 212.168 677.59 211.272 677.59 209.858C677.59 208.416 678.892 207.45 680.488 207.45C681.202 207.45 681.972 207.604 682.672 207.842V207.618C682.672 206.708 682.252 205.742 680.81 205.742C680.096 205.742 679.396 206.022 678.766 206.344L678.262 205.322C679.298 204.804 680.208 204.594 681.006 204.594ZM680.53 211.076C681.426 211.076 682.434 210.628 682.672 209.732V208.766C682.084 208.584 681.412 208.486 680.698 208.486C679.732 208.486 678.92 209.032 678.92 209.816C678.92 210.6 679.62 211.076 680.53 211.076ZM689.422 210.698L689.926 211.65C689.534 211.972 689.002 212.168 688.484 212.168C687.364 212.168 686.58 211.356 686.58 210.194V205.938H685.488V204.762H686.58V202.774H687.938V204.762H689.646V205.938H687.938V210.096C687.938 210.6 688.274 210.964 688.68 210.964C688.988 210.964 689.268 210.852 689.422 210.698ZM692.025 203.558C691.549 203.558 691.185 203.166 691.185 202.718C691.185 202.284 691.549 201.892 692.025 201.892C692.473 201.892 692.851 202.284 692.851 202.718C692.851 203.166 692.473 203.558 692.025 203.558ZM691.325 212V204.762H692.711V212H691.325ZM698.146 212.168C696.074 212.168 694.324 210.432 694.324 208.374C694.324 206.316 696.074 204.594 698.146 204.594C700.204 204.594 701.94 206.316 701.94 208.374C701.94 210.432 700.204 212.168 698.146 212.168ZM698.146 210.964C699.448 210.964 700.554 209.788 700.554 208.374C700.554 206.974 699.448 205.798 698.146 205.798C696.816 205.798 695.71 206.974 695.71 208.374C695.71 209.788 696.816 210.964 698.146 210.964ZM707.244 204.594C708.84 204.594 709.96 205.756 709.96 207.394V212H708.602V207.632C708.602 206.554 707.916 205.798 706.936 205.798C705.928 205.798 705.06 206.456 704.948 207.31V212H703.562V204.762H704.948V205.812C705.382 205.098 706.264 204.594 707.244 204.594Z" fill="#18181B"/>
</g>
<defs>
<clipPath id="clip0_545_2">
<rect width="743" height="431" fill="white"/>
</clipPath>
</defs>
</svg>
