<svg width="887" height="431" viewBox="0 0 887 431" fill="none" xmlns="http://www.w3.org/2000/svg">
<g clip-path="url(#clip0_549_4)">
<rect width="887" height="431" fill="white"/>
<circle cx="446" cy="216" r="254" fill="#F4F4F5"/>
<path d="M519 217.5C518.172 217.5 517.5 218.172 517.5 219C517.5 219.828 518.172 220.5 519 220.5V217.5ZM660.061 220.061C660.646 219.475 660.646 218.525 660.061 217.939L650.515 208.393C649.929 207.808 648.979 207.808 648.393 208.393C647.808 208.979 647.808 209.929 648.393 210.515L656.879 219L648.393 227.485C647.808 228.071 647.808 229.021 648.393 229.607C648.979 230.192 649.929 230.192 650.515 229.607L660.061 220.061ZM519 220.5H659V217.5H519V220.5Z" fill="#18181B"/>
<path d="M232 217.5C231.172 217.5 230.5 218.172 230.5 219C230.5 219.828 231.172 220.5 232 220.5V217.5ZM374.061 220.061C374.646 219.475 374.646 218.525 374.061 217.939L364.515 208.393C363.929 207.808 362.979 207.808 362.393 208.393C361.808 208.979 361.808 209.929 362.393 210.515L370.879 219L362.393 227.485C361.808 228.071 361.808 229.021 362.393 229.607C362.979 230.192 363.929 230.192 364.515 229.607L374.061 220.061ZM232 220.5L373 220.5V217.5L232 217.5V220.5Z" fill="#18181B"/>
<circle cx="182.963" cy="356.963" r="2.96296" fill="#4C7C2C"/>
<circle cx="197.778" cy="356.963" r="2.96296" fill="#4C7C2C"/>
<circle cx="212.593" cy="356.963" r="2.96296" fill="#4C7C2C"/>
<circle cx="227.407" cy="356.963" r="2.96296" fill="#4C7C2C"/>
<circle cx="242.222" cy="356.963" r="2.96296" fill="#4C7C2C"/>
<circle cx="182.963" cy="371.778" r="2.96296" fill="#4C7C2C"/>
<circle cx="197.778" cy="371.778" r="2.96296" fill="#4C7C2C"/>
<circle cx="212.593" cy="371.778" r="2.96296" fill="#4C7C2C"/>
<circle cx="227.407" cy="371.778" r="2.96296" fill="#4C7C2C"/>
<circle cx="242.222" cy="371.778" r="2.96296" fill="#4C7C2C"/>
<circle cx="182.963" cy="386.593" r="2.96296" fill="#4C7C2C"/>
<circle cx="197.778" cy="386.593" r="2.96296" fill="#4C7C2C"/>
<circle cx="212.593" cy="386.593" r="2.96296" fill="#4C7C2C"/>
<circle cx="227.407" cy="386.593" r="2.96296" fill="#4C7C2C"/>
<circle cx="242.222" cy="386.593" r="2.96296" fill="#4C7C2C"/>
<circle cx="182.963" cy="401.407" r="2.96296" fill="#4C7C2C"/>
<circle cx="197.778" cy="401.407" r="2.96296" fill="#4C7C2C"/>
<circle cx="212.593" cy="401.407" r="2.96296" fill="#4C7C2C"/>
<circle cx="227.407" cy="401.407" r="2.96296" fill="#4C7C2C"/>
<circle cx="242.222" cy="401.407" r="2.96296" fill="#4C7C2C"/>
<circle cx="182.963" cy="416.222" r="2.96296" fill="#4C7C2C"/>
<circle cx="257.037" cy="416.222" r="2.96296" transform="rotate(-90 257.037 416.222)" fill="#4C7C2C"/>
<circle cx="197.778" cy="416.222" r="2.96296" fill="#4C7C2C"/>
<circle cx="257.037" cy="401.408" r="2.96296" transform="rotate(-90 257.037 401.408)" fill="#4C7C2C"/>
<circle cx="212.593" cy="416.222" r="2.96296" fill="#4C7C2C"/>
<circle cx="257.037" cy="386.593" r="2.96296" transform="rotate(-90 257.037 386.593)" fill="#4C7C2C"/>
<circle cx="227.407" cy="416.222" r="2.96296" fill="#4C7C2C"/>
<circle cx="257.037" cy="371.778" r="2.96296" transform="rotate(-90 257.037 371.778)" fill="#4C7C2C"/>
<circle cx="242.222" cy="416.222" r="2.96296" fill="#4C7C2C"/>
<circle cx="257.037" cy="356.963" r="2.96296" transform="rotate(-90 257.037 356.963)" fill="#4C7C2C"/>
<rect x="30" y="152" width="194" height="174" stroke="#98AFAE" stroke-width="3" stroke-linecap="round" stroke-linejoin="round" stroke-dasharray="0.4 10"/>
<path d="M96.6558 178.887V171.531H93.8838V170.643H100.364V171.531H97.5918V178.887H96.6558ZM102.798 173.895C103.17 173.067 104.058 172.539 105.198 172.539V173.343C103.794 173.343 102.798 174.207 102.798 175.419V178.887H101.898V172.683H102.798V173.895ZM108.963 172.539C110.655 172.539 111.483 173.607 111.483 175.107V178.887H110.583V177.915C110.139 178.647 109.215 179.031 108.399 179.031C107.091 179.031 106.131 178.275 106.131 177.051C106.131 175.815 107.235 174.987 108.567 174.987C109.239 174.987 109.947 175.131 110.583 175.335V175.107C110.583 174.267 110.247 173.307 108.903 173.307C108.279 173.307 107.655 173.583 107.091 173.871L106.731 173.139C107.619 172.695 108.363 172.539 108.963 172.539ZM108.555 178.239C109.371 178.239 110.343 177.819 110.583 176.943V175.995C110.019 175.839 109.383 175.743 108.711 175.743C107.787 175.743 107.007 176.271 107.007 177.015C107.007 177.783 107.679 178.239 108.555 178.239ZM116.274 172.539C117.642 172.539 118.602 173.535 118.602 174.939V178.887H117.702V175.059C117.702 174.051 117.066 173.343 116.154 173.343C115.11 173.343 114.234 174.075 114.234 174.939V178.887H113.334V172.683H114.234V173.679C114.594 173.019 115.398 172.539 116.274 172.539ZM122.62 179.031C121.756 179.031 120.796 178.707 120.052 178.107L120.52 177.447C121.228 177.963 121.936 178.227 122.62 178.227C123.436 178.227 123.988 177.843 123.988 177.255C123.988 176.583 123.268 176.367 122.428 176.127C120.928 175.695 120.352 175.251 120.352 174.363C120.352 173.235 121.288 172.539 122.524 172.539C123.292 172.539 124.084 172.803 124.744 173.235L124.312 173.931C123.688 173.535 123.076 173.343 122.524 173.343C121.828 173.343 121.252 173.655 121.252 174.255C121.252 174.795 121.708 174.963 122.86 175.335C123.856 175.647 124.888 175.983 124.888 177.159C124.888 178.299 123.904 179.031 122.62 179.031ZM128.897 172.539C130.589 172.539 131.417 173.607 131.417 175.107V178.887H130.517V177.915C130.073 178.647 129.149 179.031 128.333 179.031C127.025 179.031 126.065 178.275 126.065 177.051C126.065 175.815 127.169 174.987 128.501 174.987C129.173 174.987 129.881 175.131 130.517 175.335V175.107C130.517 174.267 130.181 173.307 128.837 173.307C128.213 173.307 127.589 173.583 127.025 173.871L126.665 173.139C127.553 172.695 128.297 172.539 128.897 172.539ZM128.489 178.239C129.305 178.239 130.277 177.819 130.517 176.943V175.995C129.953 175.839 129.317 175.743 128.645 175.743C127.721 175.743 126.941 176.271 126.941 177.015C126.941 177.783 127.613 178.239 128.489 178.239ZM136.136 179.031C134.396 179.031 132.92 177.543 132.92 175.779C132.92 174.015 134.396 172.539 136.136 172.539C136.976 172.539 137.756 172.887 138.344 173.451L137.72 174.063C137.312 173.619 136.748 173.343 136.136 173.343C134.9 173.343 133.868 174.459 133.868 175.779C133.868 177.111 134.9 178.227 136.136 178.227C136.76 178.227 137.336 177.939 137.756 177.471L138.38 178.083C137.792 178.671 137 179.031 136.136 179.031ZM142.484 177.975L142.928 178.635C142.604 178.887 142.196 179.031 141.776 179.031C140.888 179.031 140.264 178.371 140.264 177.447V173.487H139.292V172.683H140.264V170.979H141.164V172.683H142.688V173.487H141.164V177.447C141.164 177.903 141.476 178.227 141.836 178.227C142.112 178.227 142.352 178.119 142.484 177.975ZM144.645 171.555C144.309 171.555 144.045 171.279 144.045 170.955C144.045 170.643 144.309 170.367 144.645 170.367C144.969 170.367 145.233 170.643 145.233 170.955C145.233 171.279 144.969 171.555 144.645 171.555ZM144.189 178.887V172.683H145.089V178.887H144.189ZM149.776 179.031C148.036 179.031 146.56 177.543 146.56 175.779C146.56 174.015 148.036 172.539 149.776 172.539C151.516 172.539 152.98 174.015 152.98 175.779C152.98 177.543 151.516 179.031 149.776 179.031ZM149.776 178.227C151 178.227 152.032 177.111 152.032 175.779C152.032 174.459 151 173.343 149.776 173.343C148.54 173.343 147.508 174.459 147.508 175.779C147.508 177.111 148.54 178.227 149.776 178.227ZM157.419 172.539C158.787 172.539 159.747 173.535 159.747 174.939V178.887H158.847V175.059C158.847 174.051 158.211 173.343 157.299 173.343C156.255 173.343 155.379 174.075 155.379 174.939V178.887H154.479V172.683H155.379V173.679C155.739 173.019 156.543 172.539 157.419 172.539Z" fill="#191E1E"/>
<rect x="668" y="152" width="194" height="174" stroke="#98AFAE" stroke-width="3" stroke-linecap="round" stroke-linejoin="round" stroke-dasharray="0.4 10"/>
<rect x="685.715" y="199.347" width="158.73" height="29.5055" fill="white" stroke="#191E1E" stroke-width="2"/>
<rect x="49" y="199" width="158.73" height="29.5055" fill="white" stroke="#191E1E" stroke-width="2"/>
<rect x="685.715" y="238.793" width="158.73" height="29.5055" fill="white" stroke="#191E1E" stroke-width="2"/>
<rect x="685" y="279" width="158.73" height="29.5055" fill="white" stroke="#191E1E" stroke-width="2"/>
<path d="M711.296 174.526H706.328V177.238H710.804V178.126H706.328V180.994H711.296V181.882H705.38V173.638H711.296V174.526ZM715.819 175.534C717.187 175.534 718.147 176.53 718.147 177.934V181.882H717.247V178.054C717.247 177.046 716.611 176.338 715.699 176.338C714.655 176.338 713.779 177.07 713.779 177.934V181.882H712.879V175.678H713.779V176.674C714.139 176.014 714.943 175.534 715.819 175.534ZM720.953 176.89C721.325 176.062 722.213 175.534 723.353 175.534V176.338C721.949 176.338 720.953 177.202 720.953 178.414V181.882H720.053V175.678H720.953V176.89ZM725.042 174.55C724.706 174.55 724.442 174.274 724.442 173.95C724.442 173.638 724.706 173.362 725.042 173.362C725.366 173.362 725.63 173.638 725.63 173.95C725.63 174.274 725.366 174.55 725.042 174.55ZM724.586 181.882V175.678H725.486V181.882H724.586ZM730.173 182.026C728.433 182.026 726.957 180.538 726.957 178.774C726.957 177.01 728.433 175.534 730.173 175.534C731.013 175.534 731.793 175.882 732.381 176.446L731.757 177.058C731.349 176.614 730.785 176.338 730.173 176.338C728.937 176.338 727.905 177.454 727.905 178.774C727.905 180.106 728.937 181.222 730.173 181.222C730.797 181.222 731.373 180.934 731.793 180.466L732.417 181.078C731.829 181.666 731.037 182.026 730.173 182.026ZM736.749 175.534C738.117 175.534 739.077 176.53 739.077 177.934V181.882H738.177V178.054C738.177 177.046 737.541 176.338 736.629 176.338C735.585 176.338 734.709 177.07 734.709 177.934V181.882H733.809V173.494H734.709V176.674C735.069 176.014 735.873 175.534 736.749 175.534ZM743.694 181.222C744.426 181.222 745.266 180.898 745.65 180.478L746.202 181.066C745.662 181.654 744.57 182.026 743.706 182.026C742.05 182.026 740.562 180.67 740.562 178.762C740.562 176.914 741.954 175.534 743.622 175.534C745.494 175.534 746.562 176.95 746.562 179.122H741.486C741.618 180.334 742.47 181.222 743.694 181.222ZM743.658 176.338C742.554 176.338 741.666 177.118 741.498 178.318H745.674C745.554 177.202 744.894 176.338 743.658 176.338ZM752.883 173.494H753.783V181.882H752.883V180.718C752.415 181.534 751.623 182.026 750.627 182.026C748.995 182.026 747.771 180.682 747.771 178.774C747.771 176.878 748.995 175.534 750.627 175.534C751.623 175.534 752.415 176.026 752.883 176.842V173.494ZM750.795 181.222C752.019 181.222 752.883 180.202 752.883 178.774C752.883 177.346 752.019 176.338 750.795 176.338C749.583 176.338 748.719 177.346 748.719 178.774C748.719 180.202 749.583 181.222 750.795 181.222ZM761.568 181.882V174.526H758.796V173.638H765.276V174.526H762.504V181.882H761.568ZM767.71 176.89C768.082 176.062 768.97 175.534 770.11 175.534V176.338C768.706 176.338 767.71 177.202 767.71 178.414V181.882H766.81V175.678H767.71V176.89ZM773.875 175.534C775.567 175.534 776.395 176.602 776.395 178.102V181.882H775.495V180.91C775.051 181.642 774.127 182.026 773.311 182.026C772.003 182.026 771.043 181.27 771.043 180.046C771.043 178.81 772.147 177.982 773.479 177.982C774.151 177.982 774.859 178.126 775.495 178.33V178.102C775.495 177.262 775.159 176.302 773.815 176.302C773.191 176.302 772.567 176.578 772.003 176.866L771.643 176.134C772.531 175.69 773.275 175.534 773.875 175.534ZM773.467 181.234C774.283 181.234 775.255 180.814 775.495 179.938V178.99C774.931 178.834 774.295 178.738 773.623 178.738C772.699 178.738 771.919 179.266 771.919 180.01C771.919 180.778 772.591 181.234 773.467 181.234ZM781.186 175.534C782.554 175.534 783.514 176.53 783.514 177.934V181.882H782.614V178.054C782.614 177.046 781.978 176.338 781.066 176.338C780.022 176.338 779.146 177.07 779.146 177.934V181.882H778.246V175.678H779.146V176.674C779.506 176.014 780.31 175.534 781.186 175.534ZM787.532 182.026C786.668 182.026 785.708 181.702 784.964 181.102L785.432 180.442C786.14 180.958 786.848 181.222 787.532 181.222C788.348 181.222 788.9 180.838 788.9 180.25C788.9 179.578 788.18 179.362 787.34 179.122C785.84 178.69 785.264 178.246 785.264 177.358C785.264 176.23 786.2 175.534 787.436 175.534C788.204 175.534 788.996 175.798 789.656 176.23L789.224 176.926C788.6 176.53 787.988 176.338 787.436 176.338C786.74 176.338 786.164 176.65 786.164 177.25C786.164 177.79 786.62 177.958 787.772 178.33C788.768 178.642 789.8 178.978 789.8 180.154C789.8 181.294 788.816 182.026 787.532 182.026ZM793.809 175.534C795.501 175.534 796.329 176.602 796.329 178.102V181.882H795.429V180.91C794.985 181.642 794.061 182.026 793.245 182.026C791.937 182.026 790.977 181.27 790.977 180.046C790.977 178.81 792.081 177.982 793.413 177.982C794.085 177.982 794.793 178.126 795.429 178.33V178.102C795.429 177.262 795.093 176.302 793.749 176.302C793.125 176.302 792.501 176.578 791.937 176.866L791.577 176.134C792.465 175.69 793.209 175.534 793.809 175.534ZM793.401 181.234C794.217 181.234 795.189 180.814 795.429 179.938V178.99C794.865 178.834 794.229 178.738 793.557 178.738C792.633 178.738 791.853 179.266 791.853 180.01C791.853 180.778 792.525 181.234 793.401 181.234ZM801.048 182.026C799.308 182.026 797.832 180.538 797.832 178.774C797.832 177.01 799.308 175.534 801.048 175.534C801.888 175.534 802.668 175.882 803.256 176.446L802.632 177.058C802.224 176.614 801.66 176.338 801.048 176.338C799.812 176.338 798.78 177.454 798.78 178.774C798.78 180.106 799.812 181.222 801.048 181.222C801.672 181.222 802.248 180.934 802.668 180.466L803.292 181.078C802.704 181.666 801.912 182.026 801.048 182.026ZM807.396 180.97L807.84 181.63C807.516 181.882 807.108 182.026 806.688 182.026C805.8 182.026 805.176 181.366 805.176 180.442V176.482H804.204V175.678H805.176V173.974H806.076V175.678H807.6V176.482H806.076V180.442C806.076 180.898 806.388 181.222 806.748 181.222C807.024 181.222 807.264 181.114 807.396 180.97ZM809.557 174.55C809.221 174.55 808.957 174.274 808.957 173.95C808.957 173.638 809.221 173.362 809.557 173.362C809.881 173.362 810.145 173.638 810.145 173.95C810.145 174.274 809.881 174.55 809.557 174.55ZM809.101 181.882V175.678H810.001V181.882H809.101ZM814.688 182.026C812.948 182.026 811.472 180.538 811.472 178.774C811.472 177.01 812.948 175.534 814.688 175.534C816.428 175.534 817.892 177.01 817.892 178.774C817.892 180.538 816.428 182.026 814.688 182.026ZM814.688 181.222C815.912 181.222 816.944 180.106 816.944 178.774C816.944 177.454 815.912 176.338 814.688 176.338C813.452 176.338 812.42 177.454 812.42 178.774C812.42 180.106 813.452 181.222 814.688 181.222ZM822.331 175.534C823.699 175.534 824.659 176.53 824.659 177.934V181.882H823.759V178.054C823.759 177.046 823.123 176.338 822.211 176.338C821.167 176.338 820.291 177.07 820.291 177.934V181.882H819.391V175.678H820.291V176.674C820.651 176.014 821.455 175.534 822.331 175.534Z" fill="#191E1E"/>
<path d="M740.063 217.656C737.711 217.656 735.731 215.7 735.731 213.384C735.731 211.068 737.711 209.124 740.063 209.124C741.275 209.124 742.379 209.64 743.171 210.456L742.103 211.452C741.599 210.864 740.855 210.492 740.063 210.492C738.539 210.492 737.255 211.812 737.255 213.384C737.255 214.968 738.539 216.288 740.063 216.288C740.867 216.288 741.599 215.916 742.115 215.328L743.171 216.312C742.379 217.14 741.275 217.656 740.063 217.656ZM746.98 211.164C748.624 211.164 749.644 212.208 749.644 213.78V217.512H748.216V216.768C747.76 217.344 746.98 217.656 746.26 217.656C744.94 217.656 743.944 216.876 743.944 215.676C743.944 214.452 745.084 213.612 746.476 213.612C747.04 213.612 747.652 213.732 748.216 213.948V213.78C748.216 213.06 747.82 212.364 746.692 212.364C746.104 212.364 745.54 212.568 745.012 212.832L744.508 211.812C745.384 211.38 746.2 211.164 746.98 211.164ZM746.584 216.588C747.292 216.588 748.048 216.228 748.216 215.568V214.872C747.76 214.716 747.244 214.632 746.692 214.632C745.96 214.632 745.372 215.04 745.372 215.628C745.372 216.216 745.888 216.588 746.584 216.588ZM753.522 217.656C752.574 217.656 751.554 217.32 750.81 216.72L751.47 215.7C752.07 216.132 752.766 216.42 753.546 216.42C754.134 216.42 754.542 216.168 754.542 215.784C754.542 215.304 754.002 215.148 753.294 214.956C751.95 214.608 751.098 214.224 751.086 213.12C751.086 211.956 752.046 211.164 753.426 211.164C754.278 211.164 755.13 211.464 755.802 211.908L755.19 212.976C754.602 212.604 753.966 212.412 753.426 212.412C752.91 212.412 752.514 212.616 752.514 212.964C752.514 213.36 752.838 213.48 753.786 213.756C754.83 214.044 755.958 214.404 755.958 215.7C755.958 216.888 754.974 217.656 753.522 217.656ZM760.614 211.164C761.97 211.164 762.918 212.16 762.918 213.564V217.512H761.502V213.852C761.502 213.012 760.962 212.412 760.194 212.412C759.366 212.412 758.682 213.012 758.682 213.756V217.512H757.218V209.124H758.682V212.16C759.054 211.56 759.786 211.164 760.614 211.164ZM771.973 217.656C769.621 217.656 767.641 215.7 767.641 213.384C767.641 211.068 769.621 209.124 771.973 209.124C773.185 209.124 774.289 209.64 775.081 210.456L774.013 211.452C773.509 210.864 772.765 210.492 771.973 210.492C770.449 210.492 769.165 211.812 769.165 213.384C769.165 214.968 770.449 216.288 771.973 216.288C772.777 216.288 773.509 215.916 774.025 215.328L775.081 216.312C774.289 217.14 773.185 217.656 771.973 217.656ZM778.891 211.164C780.535 211.164 781.555 212.208 781.555 213.78V217.512H780.127V216.768C779.671 217.344 778.891 217.656 778.171 217.656C776.851 217.656 775.855 216.876 775.855 215.676C775.855 214.452 776.995 213.612 778.387 213.612C778.951 213.612 779.563 213.732 780.127 213.948V213.78C780.127 213.06 779.731 212.364 778.603 212.364C778.015 212.364 777.451 212.568 776.923 212.832L776.419 211.812C777.295 211.38 778.111 211.164 778.891 211.164ZM778.495 216.588C779.203 216.588 779.959 216.228 780.127 215.568V214.872C779.671 214.716 779.155 214.632 778.603 214.632C777.871 214.632 777.283 215.04 777.283 215.628C777.283 216.216 777.799 216.588 778.495 216.588ZM784.64 212.508C785.036 211.68 785.84 211.164 786.86 211.164V212.412C785.528 212.412 784.64 213.204 784.64 214.38V217.512H783.176V211.308H784.64V212.508ZM792.661 209.124H794.125V217.512H792.661V216.552C792.169 217.248 791.425 217.656 790.513 217.656C788.869 217.656 787.669 216.312 787.669 214.404C787.669 212.508 788.869 211.164 790.513 211.164C791.425 211.164 792.169 211.572 792.661 212.268V209.124ZM790.909 216.408C791.941 216.408 792.661 215.568 792.661 214.404C792.661 213.24 791.941 212.412 790.909 212.412C789.865 212.412 789.121 213.24 789.121 214.404C789.121 215.568 789.865 216.408 790.909 216.408Z" fill="#191E1E"/>
<path d="M103.348 217.309C100.996 217.309 99.0164 215.353 99.0164 213.037C99.0164 210.721 100.996 208.777 103.348 208.777C104.56 208.777 105.664 209.293 106.456 210.109L105.388 211.105C104.884 210.517 104.14 210.145 103.348 210.145C101.824 210.145 100.54 211.465 100.54 213.037C100.54 214.621 101.824 215.941 103.348 215.941C104.152 215.941 104.884 215.569 105.4 214.981L106.456 215.965C105.664 216.793 104.56 217.309 103.348 217.309ZM110.266 210.817C111.91 210.817 112.93 211.861 112.93 213.433V217.165H111.502V216.421C111.046 216.997 110.266 217.309 109.546 217.309C108.226 217.309 107.23 216.529 107.23 215.329C107.23 214.105 108.37 213.265 109.762 213.265C110.326 213.265 110.938 213.385 111.502 213.601V213.433C111.502 212.713 111.106 212.017 109.978 212.017C109.39 212.017 108.826 212.221 108.298 212.485L107.794 211.465C108.67 211.033 109.486 210.817 110.266 210.817ZM109.87 216.241C110.578 216.241 111.334 215.881 111.502 215.221V214.525C111.046 214.369 110.53 214.285 109.978 214.285C109.246 214.285 108.658 214.693 108.658 215.281C108.658 215.869 109.174 216.241 109.87 216.241ZM116.807 217.309C115.859 217.309 114.839 216.973 114.095 216.373L114.755 215.353C115.355 215.785 116.051 216.073 116.831 216.073C117.419 216.073 117.827 215.821 117.827 215.437C117.827 214.957 117.287 214.801 116.579 214.609C115.235 214.261 114.383 213.877 114.371 212.773C114.371 211.609 115.331 210.817 116.711 210.817C117.563 210.817 118.415 211.117 119.087 211.561L118.475 212.629C117.887 212.257 117.251 212.065 116.711 212.065C116.195 212.065 115.799 212.269 115.799 212.617C115.799 213.013 116.123 213.133 117.071 213.409C118.115 213.697 119.243 214.057 119.243 215.353C119.243 216.541 118.259 217.309 116.807 217.309ZM123.899 210.817C125.255 210.817 126.203 211.813 126.203 213.217V217.165H124.787V213.505C124.787 212.665 124.247 212.065 123.479 212.065C122.651 212.065 121.967 212.665 121.967 213.409V217.165H120.503V208.777H121.967V211.813C122.339 211.213 123.071 210.817 123.899 210.817ZM135.259 217.309C132.907 217.309 130.927 215.353 130.927 213.037C130.927 210.721 132.907 208.777 135.259 208.777C136.471 208.777 137.575 209.293 138.367 210.109L137.299 211.105C136.795 210.517 136.051 210.145 135.259 210.145C133.735 210.145 132.451 211.465 132.451 213.037C132.451 214.621 133.735 215.941 135.259 215.941C136.063 215.941 136.795 215.569 137.311 214.981L138.367 215.965C137.575 216.793 136.471 217.309 135.259 217.309ZM142.176 210.817C143.82 210.817 144.84 211.861 144.84 213.433V217.165H143.412V216.421C142.956 216.997 142.176 217.309 141.456 217.309C140.136 217.309 139.14 216.529 139.14 215.329C139.14 214.105 140.28 213.265 141.672 213.265C142.236 213.265 142.848 213.385 143.412 213.601V213.433C143.412 212.713 143.016 212.017 141.888 212.017C141.3 212.017 140.736 212.221 140.208 212.485L139.704 211.465C140.58 211.033 141.396 210.817 142.176 210.817ZM141.78 216.241C142.488 216.241 143.244 215.881 143.412 215.221V214.525C142.956 214.369 142.44 214.285 141.888 214.285C141.156 214.285 140.568 214.693 140.568 215.281C140.568 215.869 141.084 216.241 141.78 216.241ZM147.925 212.161C148.321 211.333 149.125 210.817 150.145 210.817V212.065C148.813 212.065 147.925 212.857 147.925 214.033V217.165H146.461V210.961H147.925V212.161ZM155.946 208.777H157.41V217.165H155.946V216.205C155.454 216.901 154.71 217.309 153.798 217.309C152.154 217.309 150.954 215.965 150.954 214.057C150.954 212.161 152.154 210.817 153.798 210.817C154.71 210.817 155.454 211.225 155.946 211.921V208.777ZM154.194 216.061C155.226 216.061 155.946 215.221 155.946 214.057C155.946 212.893 155.226 212.065 154.194 212.065C153.15 212.065 152.406 212.893 152.406 214.057C152.406 215.221 153.15 216.061 154.194 216.061Z" fill="#191E1E"/>
<path d="M725.235 257L724.611 255.512H720.627L720.003 257H718.335L721.779 248.756H723.447L726.891 257H725.235ZM721.167 254.216H724.071L722.619 250.748L721.167 254.216ZM731.595 250.652C733.239 250.652 734.439 251.996 734.439 253.892C734.439 255.8 733.239 257.144 731.595 257.144C730.671 257.144 729.927 256.724 729.435 256.016V259.064H727.971V250.796H729.435V251.78C729.927 251.072 730.671 250.652 731.595 250.652ZM731.199 255.896C732.243 255.896 732.987 255.056 732.987 253.892C732.987 252.728 732.243 251.9 731.199 251.9C730.167 251.9 729.447 252.728 729.447 253.892C729.447 255.056 730.167 255.896 731.199 255.896ZM739.423 250.652C741.067 250.652 742.267 251.996 742.267 253.892C742.267 255.8 741.067 257.144 739.423 257.144C738.499 257.144 737.755 256.724 737.263 256.016V259.064H735.799V250.796H737.263V251.78C737.755 251.072 738.499 250.652 739.423 250.652ZM739.027 255.896C740.071 255.896 740.815 255.056 740.815 253.892C740.815 252.728 740.071 251.9 739.027 251.9C737.995 251.9 737.275 252.728 737.275 253.892C737.275 255.056 737.995 255.896 739.027 255.896ZM745.091 251.996C745.487 251.168 746.291 250.652 747.311 250.652V251.9C745.979 251.9 745.091 252.692 745.091 253.868V257H743.627V250.796H745.091V251.996ZM751.243 257.144C749.443 257.144 747.919 255.656 747.919 253.892C747.919 252.128 749.443 250.652 751.243 250.652C753.043 250.652 754.567 252.128 754.567 253.892C754.567 255.656 753.043 257.144 751.243 257.144ZM751.243 255.896C752.263 255.896 753.127 254.984 753.127 253.892C753.127 252.812 752.263 251.9 751.243 251.9C750.211 251.9 749.347 252.812 749.347 253.892C749.347 254.984 750.211 255.896 751.243 255.896ZM757.632 257L754.968 250.796H756.516L758.316 255.308L760.08 250.796H761.64L759.012 257H757.632ZM764.924 250.652C766.568 250.652 767.588 251.696 767.588 253.268V257H766.16V256.256C765.704 256.832 764.924 257.144 764.204 257.144C762.884 257.144 761.888 256.364 761.888 255.164C761.888 253.94 763.028 253.1 764.42 253.1C764.984 253.1 765.596 253.22 766.16 253.436V253.268C766.16 252.548 765.764 251.852 764.636 251.852C764.048 251.852 763.484 252.056 762.956 252.32L762.452 251.3C763.328 250.868 764.144 250.652 764.924 250.652ZM764.528 256.076C765.236 256.076 765.992 255.716 766.16 255.056V254.36C765.704 254.204 765.188 254.12 764.636 254.12C763.904 254.12 763.316 254.528 763.316 255.116C763.316 255.704 763.832 256.076 764.528 256.076ZM769.173 257V248.612H770.637V257H769.173ZM778.75 257.132C777.334 257.132 776.134 256.652 775.222 255.8L776.086 254.732C776.842 255.416 777.718 255.848 778.798 255.848C779.818 255.848 780.346 255.344 780.346 254.756C780.346 254.072 779.758 253.844 778.438 253.532C776.734 253.136 775.546 252.644 775.546 251.096C775.546 249.656 776.77 248.6 778.51 248.6C779.818 248.6 780.802 249.044 781.63 249.752L780.814 250.856C780.094 250.232 779.266 249.884 778.45 249.884C777.622 249.884 777.058 250.388 777.058 250.964C777.058 251.636 777.67 251.876 778.978 252.176C780.694 252.56 781.846 253.112 781.846 254.612C781.846 256.088 780.718 257.132 778.75 257.132ZM786.261 255.668L786.681 256.652C786.333 256.952 785.829 257.144 785.361 257.144C784.329 257.144 783.609 256.4 783.609 255.356V252.008H782.709V250.796H783.609V249.092H785.037V250.796H786.441V252.008H785.037V255.176C785.037 255.596 785.301 255.896 785.649 255.896C785.901 255.896 786.129 255.8 786.261 255.668ZM790.518 250.652C792.162 250.652 793.182 251.696 793.182 253.268V257H791.754V256.256C791.298 256.832 790.518 257.144 789.798 257.144C788.478 257.144 787.482 256.364 787.482 255.164C787.482 253.94 788.622 253.1 790.014 253.1C790.578 253.1 791.19 253.22 791.754 253.436V253.268C791.754 252.548 791.358 251.852 790.23 251.852C789.642 251.852 789.078 252.056 788.55 252.32L788.046 251.3C788.922 250.868 789.738 250.652 790.518 250.652ZM790.122 256.076C790.83 256.076 791.586 255.716 791.754 255.056V254.36C791.298 254.204 790.782 254.12 790.23 254.12C789.498 254.12 788.91 254.528 788.91 255.116C788.91 255.704 789.426 256.076 790.122 256.076ZM797.863 255.668L798.283 256.652C797.935 256.952 797.431 257.144 796.963 257.144C795.931 257.144 795.211 256.4 795.211 255.356V252.008H794.311V250.796H795.211V249.092H796.639V250.796H798.043V252.008H796.639V255.176C796.639 255.596 796.903 255.896 797.251 255.896C797.503 255.896 797.731 255.8 797.863 255.668ZM803.619 250.796H805.083V257H803.619V256.172C803.235 256.748 802.515 257.144 801.699 257.144C800.343 257.144 799.395 256.148 799.395 254.744V250.796H800.811V254.456C800.811 255.296 801.351 255.896 802.119 255.896C802.887 255.896 803.523 255.38 803.619 254.72V250.796ZM808.989 257.144C808.041 257.144 807.021 256.808 806.277 256.208L806.937 255.188C807.537 255.62 808.233 255.908 809.013 255.908C809.601 255.908 810.009 255.656 810.009 255.272C810.009 254.792 809.469 254.636 808.761 254.444C807.417 254.096 806.565 253.712 806.553 252.608C806.553 251.444 807.513 250.652 808.893 250.652C809.745 250.652 810.597 250.952 811.269 251.396L810.657 252.464C810.069 252.092 809.433 251.9 808.893 251.9C808.377 251.9 807.981 252.104 807.981 252.452C807.981 252.848 808.305 252.968 809.253 253.244C810.297 253.532 811.425 253.892 811.425 255.188C811.425 256.376 810.441 257.144 808.989 257.144Z" fill="#191E1E"/>
<path d="M718.071 297.144C715.719 297.144 713.739 295.188 713.739 292.872C713.739 290.556 715.719 288.612 718.071 288.612C719.283 288.612 720.387 289.128 721.179 289.944L720.111 290.94C719.607 290.352 718.863 289.98 718.071 289.98C716.547 289.98 715.263 291.3 715.263 292.872C715.263 294.456 716.547 295.776 718.071 295.776C718.875 295.776 719.607 295.404 720.123 294.816L721.179 295.8C720.387 296.628 719.283 297.144 718.071 297.144ZM724.988 290.652C726.632 290.652 727.652 291.696 727.652 293.268V297H726.224V296.256C725.768 296.832 724.988 297.144 724.268 297.144C722.948 297.144 721.952 296.364 721.952 295.164C721.952 293.94 723.092 293.1 724.484 293.1C725.048 293.1 725.66 293.22 726.224 293.436V293.268C726.224 292.548 725.828 291.852 724.7 291.852C724.112 291.852 723.548 292.056 723.02 292.32L722.516 291.3C723.392 290.868 724.208 290.652 724.988 290.652ZM724.592 296.076C725.3 296.076 726.056 295.716 726.224 295.056V294.36C725.768 294.204 725.252 294.12 724.7 294.12C723.968 294.12 723.38 294.528 723.38 295.116C723.38 295.704 723.896 296.076 724.592 296.076ZM730.738 291.996C731.134 291.168 731.938 290.652 732.958 290.652V291.9C731.626 291.9 730.738 292.692 730.738 293.868V297H729.274V290.796H730.738V291.996ZM738.758 288.612H740.222V297H738.758V296.04C738.266 296.736 737.522 297.144 736.61 297.144C734.966 297.144 733.766 295.8 733.766 293.892C733.766 291.996 734.966 290.652 736.61 290.652C737.522 290.652 738.266 291.06 738.758 291.756V288.612ZM737.006 295.896C738.038 295.896 738.758 295.056 738.758 293.892C738.758 292.728 738.038 291.9 737.006 291.9C735.962 291.9 735.218 292.728 735.218 293.892C735.218 295.056 735.962 295.896 737.006 295.896ZM750.933 288.756H752.433V297H750.933V293.484H746.817V297H745.317V288.756H746.817V292.116H750.933V288.756ZM757.093 297.144C755.293 297.144 753.769 295.656 753.769 293.892C753.769 292.128 755.293 290.652 757.093 290.652C758.893 290.652 760.417 292.128 760.417 293.892C760.417 295.656 758.893 297.144 757.093 297.144ZM757.093 295.896C758.113 295.896 758.977 294.984 758.977 293.892C758.977 292.812 758.113 291.9 757.093 291.9C756.061 291.9 755.197 292.812 755.197 293.892C755.197 294.984 756.061 295.896 757.093 295.896ZM761.687 297V288.612H763.151V297H761.687ZM769.485 288.612H770.949V297H769.485V296.04C768.993 296.736 768.249 297.144 767.337 297.144C765.693 297.144 764.493 295.8 764.493 293.892C764.493 291.996 765.693 290.652 767.337 290.652C768.249 290.652 768.993 291.06 769.485 291.756V288.612ZM767.733 295.896C768.765 295.896 769.485 295.056 769.485 293.892C769.485 292.728 768.765 291.9 767.733 291.9C766.689 291.9 765.945 292.728 765.945 293.892C765.945 295.056 766.689 295.896 767.733 295.896ZM775.489 295.848C776.065 295.848 776.749 295.584 777.097 295.224L778.021 296.184C777.481 296.76 776.401 297.144 775.501 297.144C773.725 297.144 772.261 295.788 772.261 293.88C772.261 292.02 773.653 290.652 775.417 290.652C777.337 290.652 778.453 292.104 778.453 294.396H773.773C773.953 295.248 774.601 295.848 775.489 295.848ZM775.477 291.948C774.661 291.948 774.001 292.464 773.785 293.28H777.049C776.881 292.5 776.353 291.948 775.477 291.948ZM781.222 291.996C781.618 291.168 782.422 290.652 783.442 290.652V291.9C782.11 291.9 781.222 292.692 781.222 293.868V297H779.758V290.796H781.222V291.996ZM788.081 297V288.756H790.985C793.709 288.756 795.629 290.46 795.629 292.872C795.629 295.284 793.709 297 790.985 297H788.081ZM789.581 295.644H791.141C792.881 295.644 794.105 294.492 794.105 292.872C794.105 291.252 792.881 290.112 791.141 290.112H789.581V295.644ZM799.754 290.652C801.398 290.652 802.418 291.696 802.418 293.268V297H800.99V296.256C800.534 296.832 799.754 297.144 799.034 297.144C797.714 297.144 796.718 296.364 796.718 295.164C796.718 293.94 797.858 293.1 799.25 293.1C799.814 293.1 800.426 293.22 800.99 293.436V293.268C800.99 292.548 800.594 291.852 799.466 291.852C798.878 291.852 798.314 292.056 797.786 292.32L797.282 291.3C798.158 290.868 798.974 290.652 799.754 290.652ZM799.358 296.076C800.066 296.076 800.822 295.716 800.99 295.056V294.36C800.534 294.204 800.018 294.12 799.466 294.12C798.734 294.12 798.146 294.528 798.146 295.116C798.146 295.704 798.662 296.076 799.358 296.076ZM807.099 295.668L807.519 296.652C807.171 296.952 806.667 297.144 806.199 297.144C805.167 297.144 804.447 296.4 804.447 295.356V292.008H803.547V290.796H804.447V289.092H805.875V290.796H807.279V292.008H805.875V295.176C805.875 295.596 806.139 295.896 806.487 295.896C806.739 295.896 806.967 295.8 807.099 295.668ZM811.356 290.652C813 290.652 814.02 291.696 814.02 293.268V297H812.592V296.256C812.136 296.832 811.356 297.144 810.636 297.144C809.316 297.144 808.32 296.364 808.32 295.164C808.32 293.94 809.46 293.1 810.852 293.1C811.416 293.1 812.028 293.22 812.592 293.436V293.268C812.592 292.548 812.196 291.852 811.068 291.852C810.48 291.852 809.916 292.056 809.388 292.32L808.884 291.3C809.76 290.868 810.576 290.652 811.356 290.652ZM810.96 296.076C811.668 296.076 812.424 295.716 812.592 295.056V294.36C812.136 294.204 811.62 294.12 811.068 294.12C810.336 294.12 809.748 294.528 809.748 295.116C809.748 295.704 810.264 296.076 810.96 296.076Z" fill="#191E1E"/>
<path d="M447.5 171C443.938 171 440.672 171.297 437.406 171.891V152.594C440.672 152.297 443.938 152 447.5 152C464.719 152 480.453 158.531 492.328 169.516L500.938 160.609C503.906 157.641 508.953 159.719 508.953 163.875V195.344C508.953 198.016 506.875 200.094 504.203 200.094H473.031C468.875 200.094 466.797 195.047 469.766 192.078L478.672 182.875C470.359 175.453 459.375 171 447.5 171ZM400 218.5C400 221.766 400.297 225.031 400.891 228H381.594C381 225.031 381 221.766 381 218.5C381 201.578 387.234 185.844 397.922 174.266L389.016 165.359C386.047 162.391 388.125 157.344 392.281 157.344H423.75C426.422 157.344 428.5 159.422 428.5 162.094V193.266C428.5 197.422 423.453 199.797 420.484 196.828L411.281 187.625C404.156 195.938 400 206.625 400 218.5ZM425.234 246.109L416.625 254.719C424.938 261.844 435.625 266 447.5 266C450.469 266 453.734 265.703 456.703 265.109V284.406C453.438 284.703 450.469 285 447.5 285C430.281 285 414.844 278.469 402.969 268.078L393.766 277.281C390.797 280.25 385.75 278.172 385.75 274.016V242.547C385.75 240.172 387.828 237.797 390.5 237.797H421.672C425.828 237.797 428.203 243.141 425.234 246.109ZM474.516 241.359L483.125 249.969C490.547 241.656 495 230.672 495 218.5C495 215.234 494.703 212.266 494.109 209H513.109C513.703 212.266 514 215.234 514 218.5C514 235.719 507.172 251.453 496.484 263.328L505.688 272.531C508.656 275.5 506.578 280.547 502.422 280.547H470.953C468.578 280.547 466.203 278.469 466.203 275.797V244.625C466.203 240.469 471.547 238.391 474.516 241.359Z" fill="#18181B"/>
<path d="M427.404 204.978H421.916V207.302H426.886V208.898H421.916V211.404H427.404V213H420.166V203.382H427.404V204.978ZM432.972 205.594C434.554 205.594 435.66 206.756 435.66 208.394V213H434.008V208.73C434.008 207.75 433.378 207.05 432.482 207.05C431.586 207.05 430.844 207.652 430.732 208.422V213H429.024V205.762H430.732V206.728C431.18 206.056 432.02 205.594 432.972 205.594ZM439.264 207.162C439.726 206.196 440.664 205.594 441.854 205.594V207.05C440.3 207.05 439.264 207.974 439.264 209.346V213H437.556V205.762H439.264V207.162ZM443.988 204.67C443.442 204.67 443.008 204.208 443.008 203.69C443.008 203.172 443.442 202.724 443.988 202.724C444.52 202.724 444.954 203.172 444.954 203.69C444.954 204.208 444.52 204.67 443.988 204.67ZM443.12 213V205.762H444.828V213H443.12ZM450.201 213.168C448.115 213.168 446.337 211.432 446.337 209.374C446.337 207.316 448.115 205.594 450.229 205.594C451.321 205.594 452.287 206.056 452.973 206.77L451.825 207.778C451.433 207.344 450.831 207.05 450.215 207.05C449.025 207.05 448.031 208.114 448.031 209.374C448.031 210.648 449.025 211.712 450.215 211.712C450.845 211.712 451.461 211.418 451.867 210.956L453.015 211.95C452.315 212.692 451.349 213.168 450.201 213.168ZM458.306 205.594C459.888 205.594 460.994 206.756 460.994 208.394V213H459.342V208.73C459.342 207.75 458.712 207.05 457.816 207.05C456.85 207.05 456.052 207.75 456.052 208.618V213H454.344V203.214H456.052V206.756C456.486 206.056 457.34 205.594 458.306 205.594ZM466.222 211.656C466.894 211.656 467.692 211.348 468.098 210.928L469.176 212.048C468.546 212.72 467.286 213.168 466.236 213.168C464.164 213.168 462.456 211.586 462.456 209.36C462.456 207.19 464.08 205.594 466.138 205.594C468.378 205.594 469.68 207.288 469.68 209.962H464.22C464.43 210.956 465.186 211.656 466.222 211.656ZM466.208 207.106C465.256 207.106 464.486 207.708 464.234 208.66H468.042C467.846 207.75 467.23 207.106 466.208 207.106ZM472.911 207.162C473.373 206.196 474.311 205.594 475.501 205.594V207.05C473.947 207.05 472.911 207.974 472.911 209.346V213H471.203V205.762H472.911V207.162ZM416.762 227L416.034 225.264H411.386L410.658 227H408.712L412.73 217.382H414.676L418.694 227H416.762ZM412.016 223.752H415.404L413.71 219.706L412.016 223.752ZM424.182 219.594C426.1 219.594 427.5 221.162 427.5 223.374C427.5 225.6 426.1 227.168 424.182 227.168C423.104 227.168 422.236 226.678 421.662 225.852V229.408H419.954V219.762H421.662V220.91C422.236 220.084 423.104 219.594 424.182 219.594ZM423.72 225.712C424.938 225.712 425.806 224.732 425.806 223.374C425.806 222.016 424.938 221.05 423.72 221.05C422.516 221.05 421.676 222.016 421.676 223.374C421.676 224.732 422.516 225.712 423.72 225.712ZM433.314 219.594C435.232 219.594 436.632 221.162 436.632 223.374C436.632 225.6 435.232 227.168 433.314 227.168C432.236 227.168 431.368 226.678 430.794 225.852V229.408H429.086V219.762H430.794V220.91C431.368 220.084 432.236 219.594 433.314 219.594ZM432.852 225.712C434.07 225.712 434.938 224.732 434.938 223.374C434.938 222.016 434.07 221.05 432.852 221.05C431.648 221.05 430.808 222.016 430.808 223.374C430.808 224.732 431.648 225.712 432.852 225.712ZM438.177 227V217.214H439.885V227H438.177ZM442.641 218.67C442.095 218.67 441.661 218.208 441.661 217.69C441.661 217.172 442.095 216.724 442.641 216.724C443.173 216.724 443.607 217.172 443.607 217.69C443.607 218.208 443.173 218.67 442.641 218.67ZM441.773 227V219.762H443.481V227H441.773ZM448.855 227.168C446.769 227.168 444.991 225.432 444.991 223.374C444.991 221.316 446.769 219.594 448.883 219.594C449.975 219.594 450.941 220.056 451.627 220.77L450.479 221.778C450.087 221.344 449.485 221.05 448.869 221.05C447.679 221.05 446.685 222.114 446.685 223.374C446.685 224.648 447.679 225.712 448.869 225.712C449.499 225.712 450.115 225.418 450.521 224.956L451.669 225.95C450.969 226.692 450.003 227.168 448.855 227.168ZM456.161 219.594C458.079 219.594 459.269 220.812 459.269 222.646V227H457.603V226.132C457.071 226.804 456.161 227.168 455.321 227.168C453.781 227.168 452.619 226.258 452.619 224.858C452.619 223.43 453.949 222.45 455.573 222.45C456.231 222.45 456.945 222.59 457.603 222.842V222.646C457.603 221.806 457.141 220.994 455.825 220.994C455.139 220.994 454.481 221.232 453.865 221.54L453.277 220.35C454.299 219.846 455.251 219.594 456.161 219.594ZM455.699 225.922C456.525 225.922 457.407 225.502 457.603 224.732V223.92C457.071 223.738 456.469 223.64 455.825 223.64C454.971 223.64 454.285 224.116 454.285 224.802C454.285 225.488 454.887 225.922 455.699 225.922ZM464.731 225.446L465.221 226.594C464.815 226.944 464.227 227.168 463.681 227.168C462.477 227.168 461.637 226.3 461.637 225.082V221.176H460.587V219.762H461.637V217.774H463.303V219.762H464.941V221.176H463.303V224.872C463.303 225.362 463.611 225.712 464.017 225.712C464.311 225.712 464.577 225.6 464.731 225.446ZM467.414 218.67C466.868 218.67 466.434 218.208 466.434 217.69C466.434 217.172 466.868 216.724 467.414 216.724C467.946 216.724 468.38 217.172 468.38 217.69C468.38 218.208 467.946 218.67 467.414 218.67ZM466.546 227V219.762H468.254V227H466.546ZM473.642 227.168C471.542 227.168 469.764 225.432 469.764 223.374C469.764 221.316 471.542 219.594 473.642 219.594C475.742 219.594 477.52 221.316 477.52 223.374C477.52 225.432 475.742 227.168 473.642 227.168ZM473.642 225.712C474.832 225.712 475.84 224.648 475.84 223.374C475.84 222.114 474.832 221.05 473.642 221.05C472.438 221.05 471.43 222.114 471.43 223.374C471.43 224.648 472.438 225.712 473.642 225.712ZM482.949 219.594C484.531 219.594 485.637 220.756 485.637 222.394V227H483.985V222.73C483.985 221.75 483.355 221.05 482.459 221.05C481.563 221.05 480.821 221.652 480.709 222.422V227H479.001V219.762H480.709V220.728C481.157 220.056 481.997 219.594 482.949 219.594Z" fill="#18181B"/>
</g>
<defs>
<clipPath id="clip0_549_4">
<rect width="887" height="431" fill="white"/>
</clipPath>
</defs>
</svg>
