<svg width="887" height="431" viewBox="0 0 887 431" fill="none" xmlns="http://www.w3.org/2000/svg">
<g clip-path="url(#clip0_594_209)">
<rect width="887" height="431" fill="white"/>
<circle cx="446" cy="216" r="254" fill="#F4F4F5"/>
<circle cx="182.963" cy="356.963" r="2.96296" fill="#4C7C2C"/>
<circle cx="197.778" cy="356.963" r="2.96296" fill="#4C7C2C"/>
<circle cx="212.593" cy="356.963" r="2.96296" fill="#4C7C2C"/>
<circle cx="227.407" cy="356.963" r="2.96296" fill="#4C7C2C"/>
<circle cx="242.222" cy="356.963" r="2.96296" fill="#4C7C2C"/>
<circle cx="182.963" cy="371.778" r="2.96296" fill="#4C7C2C"/>
<circle cx="197.778" cy="371.778" r="2.96296" fill="#4C7C2C"/>
<circle cx="212.593" cy="371.778" r="2.96296" fill="#4C7C2C"/>
<circle cx="227.407" cy="371.778" r="2.96296" fill="#4C7C2C"/>
<circle cx="242.222" cy="371.778" r="2.96296" fill="#4C7C2C"/>
<circle cx="182.963" cy="386.593" r="2.96296" fill="#4C7C2C"/>
<circle cx="197.778" cy="386.593" r="2.96296" fill="#4C7C2C"/>
<circle cx="212.593" cy="386.593" r="2.96296" fill="#4C7C2C"/>
<circle cx="227.407" cy="386.593" r="2.96296" fill="#4C7C2C"/>
<circle cx="242.222" cy="386.593" r="2.96296" fill="#4C7C2C"/>
<circle cx="182.963" cy="401.407" r="2.96296" fill="#4C7C2C"/>
<circle cx="197.778" cy="401.407" r="2.96296" fill="#4C7C2C"/>
<circle cx="212.593" cy="401.407" r="2.96296" fill="#4C7C2C"/>
<circle cx="227.407" cy="401.407" r="2.96296" fill="#4C7C2C"/>
<circle cx="242.222" cy="401.407" r="2.96296" fill="#4C7C2C"/>
<circle cx="182.963" cy="416.222" r="2.96296" fill="#4C7C2C"/>
<circle cx="257.037" cy="416.222" r="2.96296" transform="rotate(-90 257.037 416.222)" fill="#4C7C2C"/>
<circle cx="197.778" cy="416.222" r="2.96296" fill="#4C7C2C"/>
<circle cx="257.037" cy="401.408" r="2.96296" transform="rotate(-90 257.037 401.408)" fill="#4C7C2C"/>
<circle cx="212.593" cy="416.222" r="2.96296" fill="#4C7C2C"/>
<circle cx="257.037" cy="386.593" r="2.96296" transform="rotate(-90 257.037 386.593)" fill="#4C7C2C"/>
<circle cx="227.407" cy="416.222" r="2.96296" fill="#4C7C2C"/>
<circle cx="257.037" cy="371.778" r="2.96296" transform="rotate(-90 257.037 371.778)" fill="#4C7C2C"/>
<circle cx="242.222" cy="416.222" r="2.96296" fill="#4C7C2C"/>
<circle cx="257.037" cy="356.963" r="2.96296" transform="rotate(-90 257.037 356.963)" fill="#4C7C2C"/>
<rect x="30" y="11.1855" width="351" height="314.814" stroke="#98AFAE" stroke-width="3" stroke-linecap="round" stroke-linejoin="round" stroke-dasharray="0.4 10"/>
<path d="M175.156 57.3115V49.9555H172.384V49.0675H178.864V49.9555H176.092V57.3115H175.156ZM181.298 52.3195C181.67 51.4915 182.558 50.9635 183.698 50.9635V51.7675C182.294 51.7675 181.298 52.6315 181.298 53.8435V57.3115H180.398V51.1075H181.298V52.3195ZM187.463 50.9635C189.155 50.9635 189.983 52.0315 189.983 53.5315V57.3115H189.083V56.3395C188.639 57.0715 187.715 57.4555 186.899 57.4555C185.591 57.4555 184.631 56.6995 184.631 55.4755C184.631 54.2395 185.735 53.4115 187.067 53.4115C187.739 53.4115 188.447 53.5555 189.083 53.7595V53.5315C189.083 52.6915 188.747 51.7315 187.403 51.7315C186.779 51.7315 186.155 52.0075 185.591 52.2955L185.231 51.5635C186.119 51.1195 186.863 50.9635 187.463 50.9635ZM187.055 56.6635C187.871 56.6635 188.843 56.2435 189.083 55.3675V54.4195C188.519 54.2635 187.883 54.1675 187.211 54.1675C186.287 54.1675 185.507 54.6955 185.507 55.4395C185.507 56.2075 186.179 56.6635 187.055 56.6635ZM194.774 50.9635C196.142 50.9635 197.102 51.9595 197.102 53.3635V57.3115H196.202V53.4835C196.202 52.4755 195.566 51.7675 194.654 51.7675C193.61 51.7675 192.734 52.4995 192.734 53.3635V57.3115H191.834V51.1075H192.734V52.1035C193.094 51.4435 193.898 50.9635 194.774 50.9635ZM201.12 57.4555C200.256 57.4555 199.296 57.1315 198.552 56.5315L199.02 55.8715C199.728 56.3875 200.436 56.6515 201.12 56.6515C201.936 56.6515 202.488 56.2675 202.488 55.6795C202.488 55.0075 201.768 54.7915 200.928 54.5515C199.428 54.1195 198.852 53.6755 198.852 52.7875C198.852 51.6595 199.788 50.9635 201.024 50.9635C201.792 50.9635 202.584 51.2275 203.244 51.6595L202.812 52.3555C202.188 51.9595 201.576 51.7675 201.024 51.7675C200.328 51.7675 199.752 52.0795 199.752 52.6795C199.752 53.2195 200.208 53.3875 201.36 53.7595C202.356 54.0715 203.388 54.4075 203.388 55.5835C203.388 56.7235 202.404 57.4555 201.12 57.4555ZM207.397 50.9635C209.089 50.9635 209.917 52.0315 209.917 53.5315V57.3115H209.017V56.3395C208.573 57.0715 207.649 57.4555 206.833 57.4555C205.525 57.4555 204.565 56.6995 204.565 55.4755C204.565 54.2395 205.669 53.4115 207.001 53.4115C207.673 53.4115 208.381 53.5555 209.017 53.7595V53.5315C209.017 52.6915 208.681 51.7315 207.337 51.7315C206.713 51.7315 206.089 52.0075 205.525 52.2955L205.165 51.5635C206.053 51.1195 206.797 50.9635 207.397 50.9635ZM206.989 56.6635C207.805 56.6635 208.777 56.2435 209.017 55.3675V54.4195C208.453 54.2635 207.817 54.1675 207.145 54.1675C206.221 54.1675 205.441 54.6955 205.441 55.4395C205.441 56.2075 206.113 56.6635 206.989 56.6635ZM214.636 57.4555C212.896 57.4555 211.42 55.9675 211.42 54.2035C211.42 52.4395 212.896 50.9635 214.636 50.9635C215.476 50.9635 216.256 51.3115 216.844 51.8755L216.22 52.4875C215.812 52.0435 215.248 51.7675 214.636 51.7675C213.4 51.7675 212.368 52.8835 212.368 54.2035C212.368 55.5355 213.4 56.6515 214.636 56.6515C215.26 56.6515 215.836 56.3635 216.256 55.8955L216.88 56.5075C216.292 57.0955 215.5 57.4555 214.636 57.4555ZM220.984 56.3995L221.428 57.0595C221.104 57.3115 220.696 57.4555 220.276 57.4555C219.388 57.4555 218.764 56.7955 218.764 55.8715V51.9115H217.792V51.1075H218.764V49.4035H219.664V51.1075H221.188V51.9115H219.664V55.8715C219.664 56.3275 219.976 56.6515 220.336 56.6515C220.612 56.6515 220.852 56.5435 220.984 56.3995ZM223.145 49.9795C222.809 49.9795 222.545 49.7035 222.545 49.3795C222.545 49.0675 222.809 48.7915 223.145 48.7915C223.469 48.7915 223.733 49.0675 223.733 49.3795C223.733 49.7035 223.469 49.9795 223.145 49.9795ZM222.689 57.3115V51.1075H223.589V57.3115H222.689ZM228.276 57.4555C226.536 57.4555 225.06 55.9675 225.06 54.2035C225.06 52.4395 226.536 50.9635 228.276 50.9635C230.016 50.9635 231.48 52.4395 231.48 54.2035C231.48 55.9675 230.016 57.4555 228.276 57.4555ZM228.276 56.6515C229.5 56.6515 230.532 55.5355 230.532 54.2035C230.532 52.8835 229.5 51.7675 228.276 51.7675C227.04 51.7675 226.008 52.8835 226.008 54.2035C226.008 55.5355 227.04 56.6515 228.276 56.6515ZM235.919 50.9635C237.287 50.9635 238.247 51.9595 238.247 53.3635V57.3115H237.347V53.4835C237.347 52.4755 236.711 51.7675 235.799 51.7675C234.755 51.7675 233.879 52.4995 233.879 53.3635V57.3115H232.979V51.1075H233.879V52.1035C234.239 51.4435 235.043 50.9635 235.919 50.9635Z" fill="#191E1E"/>
<rect x="63.567" y="95.4126" width="288.805" height="55.0023" fill="white" stroke="#191E1E" stroke-width="2"/>
<path d="M182.953 127.091C180.601 127.091 178.621 125.135 178.621 122.819C178.621 120.503 180.601 118.559 182.953 118.559C184.165 118.559 185.269 119.075 186.061 119.891L184.993 120.887C184.489 120.299 183.745 119.927 182.953 119.927C181.429 119.927 180.145 121.247 180.145 122.819C180.145 124.403 181.429 125.723 182.953 125.723C183.757 125.723 184.489 125.351 185.005 124.763L186.061 125.747C185.269 126.575 184.165 127.091 182.953 127.091ZM189.87 120.599C191.514 120.599 192.534 121.643 192.534 123.215V126.947H191.106V126.203C190.65 126.779 189.87 127.091 189.15 127.091C187.83 127.091 186.834 126.311 186.834 125.111C186.834 123.887 187.974 123.047 189.366 123.047C189.93 123.047 190.542 123.167 191.106 123.383V123.215C191.106 122.495 190.71 121.799 189.582 121.799C188.994 121.799 188.43 122.003 187.902 122.267L187.398 121.247C188.274 120.815 189.09 120.599 189.87 120.599ZM189.474 126.023C190.182 126.023 190.938 125.663 191.106 125.003V124.307C190.65 124.151 190.134 124.067 189.582 124.067C188.85 124.067 188.262 124.475 188.262 125.063C188.262 125.651 188.778 126.023 189.474 126.023ZM196.412 127.091C195.464 127.091 194.444 126.755 193.7 126.155L194.36 125.135C194.96 125.567 195.656 125.855 196.436 125.855C197.024 125.855 197.432 125.603 197.432 125.219C197.432 124.739 196.892 124.583 196.184 124.391C194.84 124.043 193.988 123.659 193.976 122.555C193.976 121.391 194.936 120.599 196.316 120.599C197.168 120.599 198.02 120.899 198.692 121.343L198.08 122.411C197.492 122.039 196.856 121.847 196.316 121.847C195.8 121.847 195.404 122.051 195.404 122.399C195.404 122.795 195.728 122.915 196.676 123.191C197.72 123.479 198.848 123.839 198.848 125.135C198.848 126.323 197.864 127.091 196.412 127.091ZM203.504 120.599C204.86 120.599 205.808 121.595 205.808 122.999V126.947H204.392V123.287C204.392 122.447 203.852 121.847 203.084 121.847C202.256 121.847 201.572 122.447 201.572 123.191V126.947H200.108V118.559H201.572V121.595C201.944 120.995 202.676 120.599 203.504 120.599ZM214.863 127.091C212.511 127.091 210.531 125.135 210.531 122.819C210.531 120.503 212.511 118.559 214.863 118.559C216.075 118.559 217.179 119.075 217.971 119.891L216.903 120.887C216.399 120.299 215.655 119.927 214.863 119.927C213.339 119.927 212.055 121.247 212.055 122.819C212.055 124.403 213.339 125.723 214.863 125.723C215.667 125.723 216.399 125.351 216.915 124.763L217.971 125.747C217.179 126.575 216.075 127.091 214.863 127.091ZM221.781 120.599C223.425 120.599 224.445 121.643 224.445 123.215V126.947H223.017V126.203C222.561 126.779 221.781 127.091 221.061 127.091C219.741 127.091 218.745 126.311 218.745 125.111C218.745 123.887 219.885 123.047 221.277 123.047C221.841 123.047 222.453 123.167 223.017 123.383V123.215C223.017 122.495 222.621 121.799 221.493 121.799C220.905 121.799 220.341 122.003 219.813 122.267L219.309 121.247C220.185 120.815 221.001 120.599 221.781 120.599ZM221.385 126.023C222.093 126.023 222.849 125.663 223.017 125.003V124.307C222.561 124.151 222.045 124.067 221.493 124.067C220.761 124.067 220.173 124.475 220.173 125.063C220.173 125.651 220.689 126.023 221.385 126.023ZM227.53 121.943C227.926 121.115 228.73 120.599 229.75 120.599V121.847C228.418 121.847 227.53 122.639 227.53 123.815V126.947H226.066V120.743H227.53V121.943ZM235.55 118.559H237.014V126.947H235.55V125.987C235.058 126.683 234.314 127.091 233.402 127.091C231.758 127.091 230.558 125.747 230.558 123.839C230.558 121.943 231.758 120.599 233.402 120.599C234.314 120.599 235.058 121.007 235.55 121.703V118.559ZM233.798 125.843C234.83 125.843 235.55 125.003 235.55 123.839C235.55 122.675 234.83 121.847 233.798 121.847C232.754 121.847 232.01 122.675 232.01 123.839C232.01 125.003 232.754 125.843 233.798 125.843Z" fill="#191E1E"/>
<rect x="541.301" y="95" width="290.452" height="55.325" fill="white" stroke="#191E1E" stroke-width="2"/>
<rect x="541.301" y="166.773" width="290.452" height="55.325" fill="white" stroke="#191E1E" stroke-width="2"/>
<rect x="540" y="239.93" width="290.452" height="55.325" fill="white" stroke="#191E1E" stroke-width="2"/>
<path d="M661.51 126.722C659.158 126.722 657.178 124.766 657.178 122.45C657.178 120.134 659.158 118.19 661.51 118.19C662.722 118.19 663.826 118.706 664.618 119.522L663.55 120.518C663.046 119.93 662.302 119.558 661.51 119.558C659.986 119.558 658.702 120.878 658.702 122.45C658.702 124.034 659.986 125.354 661.51 125.354C662.314 125.354 663.046 124.982 663.562 124.394L664.618 125.378C663.826 126.206 662.722 126.722 661.51 126.722ZM668.427 120.23C670.071 120.23 671.091 121.274 671.091 122.846V126.578H669.663V125.834C669.207 126.41 668.427 126.722 667.707 126.722C666.387 126.722 665.391 125.942 665.391 124.742C665.391 123.518 666.531 122.678 667.923 122.678C668.487 122.678 669.099 122.798 669.663 123.014V122.846C669.663 122.126 669.267 121.43 668.139 121.43C667.551 121.43 666.987 121.634 666.459 121.898L665.955 120.878C666.831 120.446 667.647 120.23 668.427 120.23ZM668.031 125.654C668.739 125.654 669.495 125.294 669.663 124.634V123.938C669.207 123.782 668.691 123.698 668.139 123.698C667.407 123.698 666.819 124.106 666.819 124.694C666.819 125.282 667.335 125.654 668.031 125.654ZM674.968 126.722C674.02 126.722 673 126.386 672.256 125.786L672.916 124.766C673.516 125.198 674.212 125.486 674.992 125.486C675.58 125.486 675.988 125.234 675.988 124.85C675.988 124.37 675.448 124.214 674.74 124.022C673.396 123.674 672.544 123.29 672.532 122.186C672.532 121.022 673.492 120.23 674.872 120.23C675.724 120.23 676.576 120.53 677.248 120.974L676.636 122.042C676.048 121.67 675.412 121.478 674.872 121.478C674.356 121.478 673.96 121.682 673.96 122.03C673.96 122.426 674.284 122.546 675.232 122.822C676.276 123.11 677.404 123.47 677.404 124.766C677.404 125.954 676.42 126.722 674.968 126.722ZM682.06 120.23C683.416 120.23 684.364 121.226 684.364 122.63V126.578H682.948V122.918C682.948 122.078 682.408 121.478 681.64 121.478C680.812 121.478 680.128 122.078 680.128 122.822V126.578H678.664V118.19H680.128V121.226C680.5 120.626 681.232 120.23 682.06 120.23ZM693.42 126.722C691.068 126.722 689.088 124.766 689.088 122.45C689.088 120.134 691.068 118.19 693.42 118.19C694.632 118.19 695.736 118.706 696.528 119.522L695.46 120.518C694.956 119.93 694.212 119.558 693.42 119.558C691.896 119.558 690.612 120.878 690.612 122.45C690.612 124.034 691.896 125.354 693.42 125.354C694.224 125.354 694.956 124.982 695.472 124.394L696.528 125.378C695.736 126.206 694.632 126.722 693.42 126.722ZM700.337 120.23C701.981 120.23 703.001 121.274 703.001 122.846V126.578H701.573V125.834C701.117 126.41 700.337 126.722 699.617 126.722C698.297 126.722 697.301 125.942 697.301 124.742C697.301 123.518 698.441 122.678 699.833 122.678C700.397 122.678 701.009 122.798 701.573 123.014V122.846C701.573 122.126 701.177 121.43 700.049 121.43C699.461 121.43 698.897 121.634 698.369 121.898L697.865 120.878C698.741 120.446 699.557 120.23 700.337 120.23ZM699.941 125.654C700.649 125.654 701.405 125.294 701.573 124.634V123.938C701.117 123.782 700.601 123.698 700.049 123.698C699.317 123.698 698.729 124.106 698.729 124.694C698.729 125.282 699.245 125.654 699.941 125.654ZM706.087 121.574C706.483 120.746 707.287 120.23 708.307 120.23V121.478C706.975 121.478 706.087 122.27 706.087 123.446V126.578H704.623V120.374H706.087V121.574ZM714.107 118.19H715.571V126.578H714.107V125.618C713.615 126.314 712.871 126.722 711.959 126.722C710.315 126.722 709.115 125.378 709.115 123.47C709.115 121.574 710.315 120.23 711.959 120.23C712.871 120.23 713.615 120.638 714.107 121.334V118.19ZM712.355 125.474C713.387 125.474 714.107 124.634 714.107 123.47C714.107 122.306 713.387 121.478 712.355 121.478C711.311 121.478 710.567 122.306 710.567 123.47C710.567 124.634 711.311 125.474 712.355 125.474Z" fill="#191E1E"/>
<path d="M646.617 197.427L645.993 195.939H642.009L641.385 197.427H639.717L643.161 189.183H644.829L648.273 197.427H646.617ZM642.549 194.643H645.453L644.001 191.175L642.549 194.643ZM652.976 191.079C654.62 191.079 655.82 192.423 655.82 194.319C655.82 196.227 654.62 197.571 652.976 197.571C652.052 197.571 651.308 197.151 650.816 196.443V199.491H649.352V191.223H650.816V192.207C651.308 191.499 652.052 191.079 652.976 191.079ZM652.58 196.323C653.624 196.323 654.368 195.483 654.368 194.319C654.368 193.155 653.624 192.327 652.58 192.327C651.548 192.327 650.828 193.155 650.828 194.319C650.828 195.483 651.548 196.323 652.58 196.323ZM660.804 191.079C662.448 191.079 663.648 192.423 663.648 194.319C663.648 196.227 662.448 197.571 660.804 197.571C659.88 197.571 659.136 197.151 658.644 196.443V199.491H657.18V191.223H658.644V192.207C659.136 191.499 659.88 191.079 660.804 191.079ZM660.408 196.323C661.452 196.323 662.196 195.483 662.196 194.319C662.196 193.155 661.452 192.327 660.408 192.327C659.376 192.327 658.656 193.155 658.656 194.319C658.656 195.483 659.376 196.323 660.408 196.323ZM666.472 192.423C666.868 191.595 667.672 191.079 668.692 191.079V192.327C667.36 192.327 666.472 193.119 666.472 194.295V197.427H665.008V191.223H666.472V192.423ZM672.625 197.571C670.825 197.571 669.301 196.083 669.301 194.319C669.301 192.555 670.825 191.079 672.625 191.079C674.425 191.079 675.949 192.555 675.949 194.319C675.949 196.083 674.425 197.571 672.625 197.571ZM672.625 196.323C673.645 196.323 674.509 195.411 674.509 194.319C674.509 193.239 673.645 192.327 672.625 192.327C671.593 192.327 670.729 193.239 670.729 194.319C670.729 195.411 671.593 196.323 672.625 196.323ZM679.013 197.427L676.349 191.223H677.897L679.697 195.735L681.461 191.223H683.021L680.393 197.427H679.013ZM686.305 191.079C687.949 191.079 688.969 192.123 688.969 193.695V197.427H687.541V196.683C687.085 197.259 686.305 197.571 685.585 197.571C684.265 197.571 683.269 196.791 683.269 195.591C683.269 194.367 684.409 193.527 685.801 193.527C686.365 193.527 686.977 193.647 687.541 193.863V193.695C687.541 192.975 687.145 192.279 686.017 192.279C685.429 192.279 684.865 192.483 684.337 192.747L683.833 191.727C684.709 191.295 685.525 191.079 686.305 191.079ZM685.909 196.503C686.617 196.503 687.373 196.143 687.541 195.483V194.787C687.085 194.631 686.569 194.547 686.017 194.547C685.285 194.547 684.697 194.955 684.697 195.543C684.697 196.131 685.213 196.503 685.909 196.503ZM690.554 197.427V189.039H692.018V197.427H690.554ZM700.131 197.559C698.715 197.559 697.515 197.079 696.603 196.227L697.467 195.159C698.223 195.843 699.099 196.275 700.179 196.275C701.199 196.275 701.727 195.771 701.727 195.183C701.727 194.499 701.139 194.271 699.819 193.959C698.115 193.563 696.927 193.071 696.927 191.523C696.927 190.083 698.151 189.027 699.891 189.027C701.199 189.027 702.183 189.471 703.011 190.179L702.195 191.283C701.475 190.659 700.647 190.311 699.831 190.311C699.003 190.311 698.439 190.815 698.439 191.391C698.439 192.063 699.051 192.303 700.359 192.603C702.075 192.987 703.227 193.539 703.227 195.039C703.227 196.515 702.099 197.559 700.131 197.559ZM707.643 196.095L708.063 197.079C707.715 197.379 707.211 197.571 706.743 197.571C705.711 197.571 704.991 196.827 704.991 195.783V192.435H704.091V191.223H704.991V189.519H706.419V191.223H707.823V192.435H706.419V195.603C706.419 196.023 706.683 196.323 707.031 196.323C707.283 196.323 707.511 196.227 707.643 196.095ZM711.899 191.079C713.543 191.079 714.563 192.123 714.563 193.695V197.427H713.135V196.683C712.679 197.259 711.899 197.571 711.179 197.571C709.859 197.571 708.863 196.791 708.863 195.591C708.863 194.367 710.003 193.527 711.395 193.527C711.959 193.527 712.571 193.647 713.135 193.863V193.695C713.135 192.975 712.739 192.279 711.611 192.279C711.023 192.279 710.459 192.483 709.931 192.747L709.427 191.727C710.303 191.295 711.119 191.079 711.899 191.079ZM711.503 196.503C712.211 196.503 712.967 196.143 713.135 195.483V194.787C712.679 194.631 712.163 194.547 711.611 194.547C710.879 194.547 710.291 194.955 710.291 195.543C710.291 196.131 710.807 196.503 711.503 196.503ZM719.244 196.095L719.664 197.079C719.316 197.379 718.812 197.571 718.344 197.571C717.312 197.571 716.592 196.827 716.592 195.783V192.435H715.692V191.223H716.592V189.519H718.02V191.223H719.424V192.435H718.02V195.603C718.02 196.023 718.284 196.323 718.632 196.323C718.884 196.323 719.112 196.227 719.244 196.095ZM725 191.223H726.464V197.427H725V196.599C724.616 197.175 723.896 197.571 723.08 197.571C721.724 197.571 720.776 196.575 720.776 195.171V191.223H722.192V194.883C722.192 195.723 722.732 196.323 723.5 196.323C724.268 196.323 724.904 195.807 725 195.147V191.223ZM730.37 197.571C729.422 197.571 728.402 197.235 727.658 196.635L728.318 195.615C728.918 196.047 729.614 196.335 730.394 196.335C730.982 196.335 731.39 196.083 731.39 195.699C731.39 195.219 730.85 195.063 730.142 194.871C728.798 194.523 727.946 194.139 727.934 193.035C727.934 191.871 728.894 191.079 730.274 191.079C731.126 191.079 731.978 191.379 732.65 191.823L732.038 192.891C731.45 192.519 730.814 192.327 730.274 192.327C729.758 192.327 729.362 192.531 729.362 192.879C729.362 193.275 729.686 193.395 730.634 193.671C731.678 193.959 732.806 194.319 732.806 195.615C732.806 196.803 731.822 197.571 730.37 197.571Z" fill="#191E1E"/>
<path d="M638.633 270.352C636.281 270.352 634.301 268.396 634.301 266.08C634.301 263.764 636.281 261.82 638.633 261.82C639.845 261.82 640.949 262.336 641.741 263.152L640.673 264.148C640.169 263.56 639.425 263.188 638.633 263.188C637.109 263.188 635.825 264.508 635.825 266.08C635.825 267.664 637.109 268.984 638.633 268.984C639.437 268.984 640.169 268.612 640.685 268.024L641.741 269.008C640.949 269.836 639.845 270.352 638.633 270.352ZM645.55 263.86C647.194 263.86 648.214 264.904 648.214 266.476V270.208H646.786V269.464C646.33 270.04 645.55 270.352 644.83 270.352C643.51 270.352 642.514 269.572 642.514 268.372C642.514 267.148 643.654 266.308 645.046 266.308C645.61 266.308 646.222 266.428 646.786 266.644V266.476C646.786 265.756 646.39 265.06 645.262 265.06C644.674 265.06 644.11 265.264 643.582 265.528L643.078 264.508C643.954 264.076 644.77 263.86 645.55 263.86ZM645.154 269.284C645.862 269.284 646.618 268.924 646.786 268.264V267.568C646.33 267.412 645.814 267.328 645.262 267.328C644.53 267.328 643.942 267.736 643.942 268.324C643.942 268.912 644.458 269.284 645.154 269.284ZM651.299 265.204C651.695 264.376 652.499 263.86 653.519 263.86V265.108C652.187 265.108 651.299 265.9 651.299 267.076V270.208H649.835V264.004H651.299V265.204ZM659.32 261.82H660.784V270.208H659.32V269.248C658.828 269.944 658.084 270.352 657.172 270.352C655.528 270.352 654.328 269.008 654.328 267.1C654.328 265.204 655.528 263.86 657.172 263.86C658.084 263.86 658.828 264.268 659.32 264.964V261.82ZM657.568 269.104C658.6 269.104 659.32 268.264 659.32 267.1C659.32 265.936 658.6 265.108 657.568 265.108C656.524 265.108 655.78 265.936 655.78 267.1C655.78 268.264 656.524 269.104 657.568 269.104ZM671.495 261.964H672.995V270.208H671.495V266.692H667.379V270.208H665.879V261.964H667.379V265.324H671.495V261.964ZM677.655 270.352C675.855 270.352 674.331 268.864 674.331 267.1C674.331 265.336 675.855 263.86 677.655 263.86C679.455 263.86 680.979 265.336 680.979 267.1C680.979 268.864 679.455 270.352 677.655 270.352ZM677.655 269.104C678.675 269.104 679.539 268.192 679.539 267.1C679.539 266.02 678.675 265.108 677.655 265.108C676.623 265.108 675.759 266.02 675.759 267.1C675.759 268.192 676.623 269.104 677.655 269.104ZM682.249 270.208V261.82H683.713V270.208H682.249ZM690.047 261.82H691.511V270.208H690.047V269.248C689.555 269.944 688.811 270.352 687.899 270.352C686.255 270.352 685.055 269.008 685.055 267.1C685.055 265.204 686.255 263.86 687.899 263.86C688.811 263.86 689.555 264.268 690.047 264.964V261.82ZM688.295 269.104C689.327 269.104 690.047 268.264 690.047 267.1C690.047 265.936 689.327 265.108 688.295 265.108C687.251 265.108 686.507 265.936 686.507 267.1C686.507 268.264 687.251 269.104 688.295 269.104ZM696.051 269.056C696.627 269.056 697.311 268.792 697.659 268.432L698.583 269.392C698.043 269.968 696.963 270.352 696.063 270.352C694.287 270.352 692.823 268.996 692.823 267.088C692.823 265.228 694.215 263.86 695.979 263.86C697.899 263.86 699.015 265.312 699.015 267.604H694.335C694.515 268.456 695.163 269.056 696.051 269.056ZM696.039 265.156C695.223 265.156 694.563 265.672 694.347 266.488H697.611C697.443 265.708 696.915 265.156 696.039 265.156ZM701.784 265.204C702.18 264.376 702.984 263.86 704.004 263.86V265.108C702.672 265.108 701.784 265.9 701.784 267.076V270.208H700.32V264.004H701.784V265.204ZM708.643 270.208V261.964H711.547C714.271 261.964 716.191 263.668 716.191 266.08C716.191 268.492 714.271 270.208 711.547 270.208H708.643ZM710.143 268.852H711.703C713.443 268.852 714.667 267.7 714.667 266.08C714.667 264.46 713.443 263.32 711.703 263.32H710.143V268.852ZM720.316 263.86C721.96 263.86 722.98 264.904 722.98 266.476V270.208H721.552V269.464C721.096 270.04 720.316 270.352 719.596 270.352C718.276 270.352 717.28 269.572 717.28 268.372C717.28 267.148 718.42 266.308 719.812 266.308C720.376 266.308 720.988 266.428 721.552 266.644V266.476C721.552 265.756 721.156 265.06 720.028 265.06C719.44 265.06 718.876 265.264 718.348 265.528L717.844 264.508C718.72 264.076 719.536 263.86 720.316 263.86ZM719.92 269.284C720.628 269.284 721.384 268.924 721.552 268.264V267.568C721.096 267.412 720.58 267.328 720.028 267.328C719.296 267.328 718.708 267.736 718.708 268.324C718.708 268.912 719.224 269.284 719.92 269.284ZM727.661 268.876L728.081 269.86C727.733 270.16 727.229 270.352 726.761 270.352C725.729 270.352 725.009 269.608 725.009 268.564V265.216H724.109V264.004H725.009V262.3H726.437V264.004H727.841V265.216H726.437V268.384C726.437 268.804 726.701 269.104 727.049 269.104C727.301 269.104 727.529 269.008 727.661 268.876ZM731.917 263.86C733.561 263.86 734.581 264.904 734.581 266.476V270.208H733.153V269.464C732.697 270.04 731.917 270.352 731.197 270.352C729.877 270.352 728.881 269.572 728.881 268.372C728.881 267.148 730.021 266.308 731.413 266.308C731.977 266.308 732.589 266.428 733.153 266.644V266.476C733.153 265.756 732.757 265.06 731.629 265.06C731.041 265.06 730.477 265.264 729.949 265.528L729.445 264.508C730.321 264.076 731.137 263.86 731.917 263.86ZM731.521 269.284C732.229 269.284 732.985 268.924 733.153 268.264V267.568C732.697 267.412 732.181 267.328 731.629 267.328C730.897 267.328 730.309 267.736 730.309 268.324C730.309 268.912 730.825 269.284 731.521 269.284Z" fill="#191E1E"/>
<path d="M632.857 52.644H627.889V55.356H632.365V56.244H627.889V59.112H632.857V60H626.941V51.756H632.857V52.644ZM637.381 53.652C638.749 53.652 639.709 54.648 639.709 56.052V60H638.809V56.172C638.809 55.164 638.173 54.456 637.261 54.456C636.217 54.456 635.341 55.188 635.341 56.052V60H634.441V53.796H635.341V54.792C635.701 54.132 636.505 53.652 637.381 53.652ZM642.514 55.008C642.886 54.18 643.774 53.652 644.914 53.652V54.456C643.51 54.456 642.514 55.32 642.514 56.532V60H641.614V53.796H642.514V55.008ZM646.603 52.668C646.267 52.668 646.003 52.392 646.003 52.068C646.003 51.756 646.267 51.48 646.603 51.48C646.927 51.48 647.191 51.756 647.191 52.068C647.191 52.392 646.927 52.668 646.603 52.668ZM646.147 60V53.796H647.047V60H646.147ZM651.735 60.144C649.995 60.144 648.519 58.656 648.519 56.892C648.519 55.128 649.995 53.652 651.735 53.652C652.575 53.652 653.355 54 653.943 54.564L653.319 55.176C652.911 54.732 652.347 54.456 651.735 54.456C650.499 54.456 649.467 55.572 649.467 56.892C649.467 58.224 650.499 59.34 651.735 59.34C652.359 59.34 652.935 59.052 653.355 58.584L653.979 59.196C653.391 59.784 652.599 60.144 651.735 60.144ZM658.31 53.652C659.678 53.652 660.638 54.648 660.638 56.052V60H659.738V56.172C659.738 55.164 659.102 54.456 658.19 54.456C657.146 54.456 656.27 55.188 656.27 56.052V60H655.37V51.612H656.27V54.792C656.63 54.132 657.434 53.652 658.31 53.652ZM665.256 59.34C665.988 59.34 666.828 59.016 667.212 58.596L667.764 59.184C667.224 59.772 666.132 60.144 665.268 60.144C663.612 60.144 662.124 58.788 662.124 56.88C662.124 55.032 663.516 53.652 665.184 53.652C667.056 53.652 668.124 55.068 668.124 57.24H663.048C663.18 58.452 664.032 59.34 665.256 59.34ZM665.22 54.456C664.116 54.456 663.228 55.236 663.06 56.436H667.236C667.116 55.32 666.456 54.456 665.22 54.456ZM674.445 51.612H675.345V60H674.445V58.836C673.977 59.652 673.185 60.144 672.189 60.144C670.557 60.144 669.333 58.8 669.333 56.892C669.333 54.996 670.557 53.652 672.189 53.652C673.185 53.652 673.977 54.144 674.445 54.96V51.612ZM672.357 59.34C673.581 59.34 674.445 58.32 674.445 56.892C674.445 55.464 673.581 54.456 672.357 54.456C671.145 54.456 670.281 55.464 670.281 56.892C670.281 58.32 671.145 59.34 672.357 59.34ZM683.13 60V52.644H680.358V51.756H686.838V52.644H684.066V60H683.13ZM689.272 55.008C689.644 54.18 690.532 53.652 691.672 53.652V54.456C690.268 54.456 689.272 55.32 689.272 56.532V60H688.372V53.796H689.272V55.008ZM695.437 53.652C697.129 53.652 697.957 54.72 697.957 56.22V60H697.057V59.028C696.613 59.76 695.689 60.144 694.873 60.144C693.565 60.144 692.605 59.388 692.605 58.164C692.605 56.928 693.709 56.1 695.041 56.1C695.713 56.1 696.421 56.244 697.057 56.448V56.22C697.057 55.38 696.721 54.42 695.377 54.42C694.753 54.42 694.129 54.696 693.565 54.984L693.205 54.252C694.093 53.808 694.837 53.652 695.437 53.652ZM695.029 59.352C695.845 59.352 696.817 58.932 697.057 58.056V57.108C696.493 56.952 695.857 56.856 695.185 56.856C694.261 56.856 693.481 57.384 693.481 58.128C693.481 58.896 694.153 59.352 695.029 59.352ZM702.748 53.652C704.116 53.652 705.076 54.648 705.076 56.052V60H704.176V56.172C704.176 55.164 703.54 54.456 702.628 54.456C701.584 54.456 700.708 55.188 700.708 56.052V60H699.808V53.796H700.708V54.792C701.068 54.132 701.872 53.652 702.748 53.652ZM709.094 60.144C708.23 60.144 707.27 59.82 706.526 59.22L706.994 58.56C707.702 59.076 708.41 59.34 709.094 59.34C709.91 59.34 710.462 58.956 710.462 58.368C710.462 57.696 709.742 57.48 708.902 57.24C707.402 56.808 706.826 56.364 706.826 55.476C706.826 54.348 707.762 53.652 708.998 53.652C709.766 53.652 710.558 53.916 711.218 54.348L710.786 55.044C710.162 54.648 709.55 54.456 708.998 54.456C708.302 54.456 707.726 54.768 707.726 55.368C707.726 55.908 708.182 56.076 709.334 56.448C710.33 56.76 711.362 57.096 711.362 58.272C711.362 59.412 710.378 60.144 709.094 60.144ZM715.371 53.652C717.063 53.652 717.891 54.72 717.891 56.22V60H716.991V59.028C716.547 59.76 715.623 60.144 714.807 60.144C713.499 60.144 712.539 59.388 712.539 58.164C712.539 56.928 713.643 56.1 714.975 56.1C715.647 56.1 716.355 56.244 716.991 56.448V56.22C716.991 55.38 716.655 54.42 715.311 54.42C714.687 54.42 714.063 54.696 713.499 54.984L713.139 54.252C714.027 53.808 714.771 53.652 715.371 53.652ZM714.963 59.352C715.779 59.352 716.751 58.932 716.991 58.056V57.108C716.427 56.952 715.791 56.856 715.119 56.856C714.195 56.856 713.415 57.384 713.415 58.128C713.415 58.896 714.087 59.352 714.963 59.352ZM722.61 60.144C720.87 60.144 719.394 58.656 719.394 56.892C719.394 55.128 720.87 53.652 722.61 53.652C723.45 53.652 724.23 54 724.818 54.564L724.194 55.176C723.786 54.732 723.222 54.456 722.61 54.456C721.374 54.456 720.342 55.572 720.342 56.892C720.342 58.224 721.374 59.34 722.61 59.34C723.234 59.34 723.81 59.052 724.23 58.584L724.854 59.196C724.266 59.784 723.474 60.144 722.61 60.144ZM728.957 59.088L729.401 59.748C729.077 60 728.669 60.144 728.249 60.144C727.361 60.144 726.737 59.484 726.737 58.56V54.6H725.765V53.796H726.737V52.092H727.637V53.796H729.161V54.6H727.637V58.56C727.637 59.016 727.949 59.34 728.309 59.34C728.585 59.34 728.825 59.232 728.957 59.088ZM731.119 52.668C730.783 52.668 730.519 52.392 730.519 52.068C730.519 51.756 730.783 51.48 731.119 51.48C731.443 51.48 731.707 51.756 731.707 52.068C731.707 52.392 731.443 52.668 731.119 52.668ZM730.663 60V53.796H731.563V60H730.663ZM736.25 60.144C734.51 60.144 733.034 58.656 733.034 56.892C733.034 55.128 734.51 53.652 736.25 53.652C737.99 53.652 739.454 55.128 739.454 56.892C739.454 58.656 737.99 60.144 736.25 60.144ZM736.25 59.34C737.474 59.34 738.506 58.224 738.506 56.892C738.506 55.572 737.474 54.456 736.25 54.456C735.014 54.456 733.982 55.572 733.982 56.892C733.982 58.224 735.014 59.34 736.25 59.34ZM743.893 53.652C745.261 53.652 746.221 54.648 746.221 56.052V60H745.321V56.172C745.321 55.164 744.685 54.456 743.773 54.456C742.729 54.456 741.853 55.188 741.853 56.052V60H740.953V53.796H741.853V54.792C742.213 54.132 743.017 53.652 743.893 53.652Z" fill="#191E1E"/>
<rect x="509.013" y="10.2886" width="352.987" height="316.597" stroke="#98AFAE" stroke-width="3" stroke-linecap="round" stroke-linejoin="round" stroke-dasharray="0.4 10"/>
</g>
<defs>
<clipPath id="clip0_594_209">
<rect width="887" height="431" fill="white"/>
</clipPath>
</defs>
</svg>
